<svg width="71" height="71" viewBox="0 0 64 64" fill="none" xmlns="http://www.w3.org/2000/svg">
<path d="M56.2632 43.3201L53.872 39.9675C53.6374 39.6386 53.2584 39.4434 52.8543 39.4434H48.8948C49.904 37.1649 50.466 34.6461 50.466 31.9982C50.466 29.3517 49.9044 26.8341 48.8957 24.5566H52.8542C53.2583 24.5566 53.6377 24.3612 53.8722 24.0321L56.2625 20.6779C56.9278 21.0169 57.6575 21.1873 58.3878 21.1873C59.5839 21.1873 60.7807 20.7321 61.6914 19.8221C62.575 18.9391 63.0614 17.7653 63.0605 16.517C63.0597 15.2704 62.573 14.0994 61.6914 13.2207C59.8699 11.4005 56.9057 11.4002 55.0842 13.2207C53.5274 14.7762 53.3039 17.1686 54.4112 18.9683L52.2102 22.0567H47.5503C46.1085 19.8131 44.1942 17.9004 41.9487 16.4597V11.8014L45.0352 9.6035C46.8357 10.7128 49.2319 10.4882 50.7912 8.93025C51.6748 8.04725 52.161 6.87337 52.1602 5.62512C52.1593 4.3785 51.6728 3.2075 50.7912 2.32875C48.9693 0.5085 46.0052 0.5085 44.1838 2.32875C42.7193 3.79212 42.4335 5.9965 43.3268 7.75087L39.9735 10.1388C39.6442 10.3733 39.4487 10.7526 39.4487 11.157V15.1163C37.5297 14.2674 35.4402 13.7362 33.2468 13.589V9.16875C35.218 8.62125 36.6687 6.81137 36.6687 4.66925C36.6685 2.09462 34.5728 0 31.9967 0C29.4205 0 27.3248 2.09462 27.3248 4.66925C27.3248 6.81137 28.7754 8.62125 30.7467 9.16875V13.5887C28.5722 13.7355 26.4799 14.2624 24.5483 15.1138V11.1569C24.5483 10.7524 24.3527 10.3729 24.023 10.1384L20.6698 7.7525C21.0032 7.10188 21.1793 6.377 21.1788 5.625C21.1779 4.37838 20.6913 3.20737 19.8097 2.32875C18.927 1.44675 17.754 0.961125 16.5064 0.961125C15.2583 0.961125 14.0857 1.44725 13.207 2.3275C12.3244 3.20738 11.8377 4.37838 11.8368 5.625C11.8359 6.87337 12.3223 8.04712 13.2047 8.929C14.0858 9.81162 15.2583 10.2978 16.5064 10.2978C17.3864 10.2978 18.2295 10.056 18.9597 9.604L22.0483 11.8016V16.4531C19.8118 17.8819 17.8875 19.7869 16.4344 22.0566H11.7833L9.58391 18.9704C10.0364 18.24 10.279 17.3972 10.2784 16.5169C10.2775 15.2702 9.79091 14.0992 8.90928 13.2206C7.08791 11.4004 4.12391 11.4001 2.30203 13.2206C0.482906 15.0382 0.482406 17.9991 2.30203 19.8221C3.21278 20.7323 4.40916 21.1873 5.60566 21.1873C6.33591 21.1873 7.06566 21.0168 7.73091 20.6779L10.1213 24.0321C10.3558 24.3612 10.735 24.5566 11.1393 24.5566H15.0944C14.8914 25.0173 14.7058 25.4885 14.5393 25.9702C14.3137 26.6227 14.6598 27.3345 15.3123 27.56C15.9648 27.7856 16.6765 27.4396 16.9022 26.787C17.2492 25.7833 17.69 24.831 18.2129 23.9385C18.2135 23.9374 18.2142 23.9364 18.2149 23.9352C21.0392 19.1175 26.2543 16.0456 31.997 16.0456C40.8025 16.0456 47.9664 23.2019 47.9664 31.9981C47.9664 40.7962 40.8025 47.9541 31.997 47.9541C26.269 47.9541 21.0669 44.8969 18.2357 40.0988C18.2254 40.0798 18.2135 40.0619 18.2023 40.0436C17.6812 39.1522 17.2415 38.2013 16.8954 37.199C16.67 36.5464 15.9578 36.2001 15.3059 36.4255C14.6533 36.6509 14.307 37.3625 14.5324 38.015C14.7005 38.5019 14.8882 38.9779 15.0934 39.4431H11.1397C10.7357 39.4431 10.3565 39.6384 10.1219 39.9673L7.73066 43.3199C5.97578 42.428 3.76928 42.7122 2.30128 44.1753C0.484156 45.9956 0.484156 48.9575 2.30241 50.7791C3.21328 51.6894 4.40941 52.1444 5.60616 52.1444C6.80228 52.1444 7.99903 51.6891 8.90978 50.7791C9.79266 49.897 10.2789 48.7241 10.2789 47.4766C10.2789 46.5974 10.0364 45.7556 9.58453 45.0261L11.7834 41.9431H16.4347C17.8885 44.2128 19.8127 46.1176 22.0488 47.5462V52.1946L18.9582 54.3936C17.1578 53.2866 14.7629 53.5106 13.2063 55.066C12.3234 55.9481 11.8372 57.121 11.8372 58.3685C11.8372 59.616 12.3234 60.7889 13.205 61.6699C14.086 62.5526 15.2587 63.0387 16.5068 63.0387C17.7543 63.0387 18.9274 62.553 19.81 61.6711C20.6929 60.789 21.1792 59.6161 21.1792 58.3686C21.1792 57.6176 21.0029 56.8936 20.67 56.2439L24.0234 53.8579C24.353 53.6234 24.5487 53.2439 24.5487 52.8394V48.8859C26.4804 49.7374 28.5727 50.2643 30.747 50.4111V54.8311C28.7758 55.3786 27.3252 57.1885 27.3252 59.3306C27.3252 61.9053 29.421 63.9999 31.997 63.9999C34.573 63.9999 36.6689 61.9053 36.6689 59.3306C36.6689 57.1885 35.2183 55.3786 33.247 54.8311V50.4109C35.4404 50.2636 37.5299 49.7322 39.4489 48.8834V52.8394C39.4489 53.2435 39.6443 53.6226 39.9733 53.8573L43.3265 56.2479C42.434 58 42.7197 60.2039 44.1839 61.6711C45.0948 62.5814 46.2909 63.0363 47.4877 63.0363C48.6839 63.0363 49.8807 62.5811 50.7914 61.6711C51.675 60.7881 52.1613 59.6143 52.1604 58.366C52.1595 57.1194 51.673 55.9484 50.7914 55.0696C49.232 53.5116 46.8362 53.2874 45.0358 54.3961L41.9489 52.1954V47.5396C44.1939 46.0991 46.1079 44.1865 47.5495 41.9432H52.2108L54.4114 45.0288C53.3057 46.8276 53.5289 49.2206 55.0845 50.7793C55.9954 51.6895 57.1915 52.1445 58.3883 52.1445C59.5844 52.1445 60.7812 51.6893 61.6919 50.7793C62.5748 49.8971 63.061 48.7243 63.061 47.4767C63.061 46.2292 62.5748 45.0564 61.6907 44.1731C60.224 42.7119 58.0177 42.4282 56.2632 43.3201ZM56.8512 14.9891C57.6985 14.1426 59.0772 14.1425 59.9255 14.9904C60.3345 15.398 60.5602 15.9409 60.5605 16.5187C60.5609 17.0982 60.3349 17.6435 59.9243 18.0537C59.0775 18.8999 57.6994 18.9004 56.8519 18.0545C56.0073 17.2078 56.0069 15.8328 56.8512 14.9891ZM45.9508 4.09713C46.7982 3.25063 48.1768 3.2505 49.0252 4.09825C49.4343 4.506 49.6598 5.04875 49.6602 5.62663C49.6605 6.20625 49.4347 6.75137 49.024 7.16162C48.1805 8.00437 46.8108 8.00813 45.9628 7.1735C45.9549 7.1655 45.947 7.1575 45.9392 7.14975C45.1069 6.30212 45.1108 4.93663 45.9508 4.09713ZM18.0558 7.1485C18.0473 7.15662 18.0389 7.165 18.0308 7.1735C17.6217 7.57613 17.081 7.79775 16.5065 7.79775C15.927 7.79775 15.3829 7.57225 14.973 7.16162C14.5624 6.75137 14.3364 6.20613 14.3368 5.62663C14.3372 5.04875 14.5628 4.506 14.9743 4.09587C15.3829 3.6865 15.927 3.461 16.5065 3.461C17.0867 3.461 17.6322 3.68687 18.0439 4.09825C18.4529 4.50588 18.6785 5.04875 18.6789 5.62663C18.6792 6.20013 18.4582 6.73975 18.0558 7.1485ZM7.14228 18.0536C6.29491 18.9002 4.91641 18.9001 4.07028 18.0548C3.22516 17.2081 3.22466 15.8329 4.06916 14.989C4.49278 14.5658 5.04878 14.3541 5.60528 14.3541C6.16203 14.3541 6.71916 14.5661 7.14353 14.9901C7.55253 15.3977 7.77816 15.9406 7.77853 16.5185C7.77878 17.0981 7.55291 17.6432 7.14228 18.0536ZM29.8248 4.66925C29.8248 3.47312 30.799 2.5 31.9967 2.5C33.1943 2.5 34.1685 3.47312 34.1685 4.66925C34.1685 5.86538 33.1943 6.8385 31.9967 6.8385C30.799 6.8385 29.8248 5.86538 29.8248 4.66925ZM7.14228 49.0109C6.29491 49.8575 4.91641 49.8575 4.07028 49.012C3.22528 48.1655 3.22528 46.7881 4.06791 45.9439C4.49191 45.5214 5.04878 45.3101 5.60578 45.3101C6.16266 45.3101 6.71953 45.5214 7.14353 45.9439C7.55303 46.3536 7.77853 46.898 7.77853 47.4767C7.77841 48.0561 7.55253 48.601 7.14228 49.0109ZM18.0427 59.9029C17.6322 60.3131 17.0867 60.539 16.5065 60.539C15.927 60.539 15.3829 60.3135 14.973 59.9029C14.5628 59.4929 14.3368 58.9481 14.3368 58.3689C14.3368 57.7896 14.5628 57.2447 14.973 56.8349C15.3954 56.4129 15.9507 56.2019 16.5065 56.2019C17.0577 56.2019 17.609 56.4094 18.0318 56.8242C18.0398 56.8324 18.0478 56.8404 18.0559 56.8484C18.4578 57.2567 18.6788 57.796 18.6788 58.369C18.6788 58.948 18.4529 59.4929 18.0427 59.9029ZM34.1685 59.3307C34.1685 60.5269 33.1943 61.5 31.9967 61.5C30.799 61.5 29.8248 60.5269 29.8248 59.3307C29.8248 58.1346 30.799 57.1615 31.9967 57.1615C33.1943 57.1615 34.1685 58.1346 34.1685 59.3307ZM45.9379 56.8512C45.9462 56.8433 45.9544 56.835 45.9625 56.8266C46.8107 55.9916 48.1807 55.9956 49.0252 56.8394C49.4343 57.2471 49.6598 57.7899 49.6602 58.3677C49.6605 58.9474 49.4347 59.4925 49.024 59.9027C48.1767 60.7494 46.7979 60.7494 45.952 59.9039C45.1113 59.0616 45.1064 57.6961 45.9379 56.8512ZM59.9243 49.0109C59.0769 49.8575 57.6983 49.8575 56.8524 49.012C56.0079 48.1659 56.0074 46.7896 56.8509 45.943C57.699 45.0989 59.0778 45.0993 59.9243 45.9429C60.3345 46.3527 60.5605 46.8976 60.5605 47.4769C60.5605 48.0561 60.3347 48.601 59.9243 49.0109Z" fill="#162454"/>
<path d="M16.0313 31.9946C16.0313 31.3042 15.4715 30.7446 14.7812 30.7446C14.091 30.7446 13.5312 31.3042 13.5312 31.9946V31.9981C13.5312 32.6885 14.091 33.2463 14.7812 33.2463C15.4715 33.2463 16.0313 32.6849 16.0313 31.9946Z" fill="#162454"/>
<path d="M35.1964 40V32.7918H28.8364V40H26V24H28.8364V30.2689H35.1964V24H38V40H35.1964Z" fill="#162454"/>
</svg>
