<svg width="71" height="71" viewBox="0 0 71 71" fill="none" xmlns="http://www.w3.org/2000/svg">
<path d="M62.6797 17.3061L37.1641 2.99512C36.1656 2.44043 34.9453 2.44043 33.9469 2.99512L8.43125 17.3061C7.32187 17.8607 6.65625 18.9701 6.65625 20.1904V50.9201C6.65625 52.1404 7.32188 53.2498 8.32031 53.8045L33.8359 68.1154C34.8344 68.6701 36.0547 68.6701 37.0531 68.1154L62.5688 53.8045C63.5672 53.2498 64.2328 52.1404 64.2328 50.9201V20.1904C64.3438 18.9701 63.6781 17.8607 62.6797 17.3061ZM52.1406 13.867L54.8031 15.3092L52.1406 17.0842V13.867ZM43.2656 8.98574L48.3687 11.8701L43.2656 14.5326V8.98574ZM41.0469 15.7529L37.7188 17.5279L36.6094 16.9732C35.9438 16.6404 35.0562 16.6404 34.3906 17.0842L26.5141 21.9654C25.8484 22.4092 25.5156 23.0748 25.5156 23.8514V27.5123L19.9688 24.4061V19.4139L27.8453 14.5326L28.9547 15.0873C29.6203 15.4201 30.3969 15.4201 31.0625 15.0873L41.0469 9.65137V15.7529ZM27.7344 23.9623L35.6109 19.0811L36.7203 19.6357C37.3859 19.9686 38.1625 19.9686 38.8281 19.6357L49.9219 13.4232V18.4154L44.2641 21.9654L43.1547 21.4107C42.4891 21.0779 41.6016 21.0779 40.9359 21.5217L33.0594 26.4029C32.3937 26.8467 32.0609 27.5123 32.0609 28.2889V31.1732L27.6234 28.7326V23.9623H27.7344ZM36.0547 32.8373C35.7219 33.0592 35.2781 33.0592 34.9453 32.8373L34.3906 32.5045V28.3998L42.2672 23.5186L43.3766 24.0732C44.0422 24.4061 44.9297 24.4061 45.5953 23.9623L56.6891 16.8623V21.2998L36.0547 32.8373ZM58.7969 17.6389L61.0156 18.8592L58.7969 20.0795V17.6389ZM34.9453 4.88105C35.2781 4.65918 35.7219 4.65918 36.0547 4.88105L40.4922 7.43262L29.9531 13.2014L28.8438 12.6467C28.1781 12.3139 27.2906 12.3139 26.625 12.7576L18.7484 17.6389C18.0828 18.0826 17.75 18.7482 17.75 19.5248V23.1857L9.98438 18.8592L34.9453 4.88105ZM9.42969 51.8076C9.09687 51.5857 8.875 51.2529 8.875 50.8092V27.2904L12.6469 29.1764C12.9797 29.3982 13.3125 29.7311 13.3125 30.1748V31.1732C11.5375 31.8389 10.65 33.7248 11.3156 35.3889C11.9812 37.1639 13.8672 38.0514 15.5312 37.3857C17.1953 36.7201 18.1938 34.8342 17.5281 33.1701C17.1953 32.1717 16.4187 31.5061 15.5312 31.1732V30.1748C15.5312 28.9545 14.8656 27.7342 13.6453 27.1795L8.875 24.8498V20.7451L33.8359 34.7232C33.9469 34.8342 34.1688 34.8342 34.3906 34.9451V46.9264L24.9609 41.8232C24.6281 41.6014 24.4062 41.2685 24.4062 40.8248V38.606C26.1812 37.9404 27.0687 36.0545 26.4031 34.3904C25.7375 32.7264 23.8516 31.7279 22.1875 32.3936C20.4125 33.0592 19.525 34.9451 20.1906 36.6092C20.5234 37.6076 21.3 38.2732 22.1875 38.606V40.8248C22.1875 42.0451 22.8531 43.1545 23.9625 43.7092L34.3906 49.367V60.1279L24.9609 55.0248C24.6281 54.8029 24.4062 54.4701 24.4062 54.0264V49.9217C24.4062 48.7014 23.7406 47.7029 22.7422 47.0373L18.8594 44.8186C18.8594 44.7076 18.8594 44.4857 18.8594 44.3748C18.8594 42.4889 17.4172 41.0467 15.5312 41.0467C13.6453 41.0467 12.2031 42.4889 12.2031 44.3748C12.2031 46.2607 13.6453 47.7029 15.5312 47.7029C16.4187 47.7029 17.1953 47.3701 17.8609 46.8154L21.7438 49.1451C22.0766 49.367 22.2984 49.6998 22.2984 50.1436V54.2482C22.2984 55.4686 22.9641 56.5779 24.0734 57.1326L34.5016 62.7904V65.7857L9.42969 51.8076ZM15.5312 34.3904C15.5312 35.056 15.0875 35.4998 14.4219 35.4998C13.7562 35.4998 13.3125 35.056 13.3125 34.3904C13.3125 33.7248 13.7562 33.281 14.4219 33.281C15.0875 33.281 15.5312 33.7248 15.5312 34.3904ZM22.1875 35.4998C22.1875 34.8342 22.6313 34.3904 23.2969 34.3904C23.9625 34.3904 24.4062 34.8342 24.4062 35.4998C24.4062 36.1654 23.9625 36.6092 23.2969 36.6092C22.6313 36.6092 22.1875 36.1654 22.1875 35.4998ZM16.6406 44.3748C16.6406 45.0404 16.1969 45.4842 15.5312 45.4842C14.8656 45.4842 14.4219 45.0404 14.4219 44.3748C14.4219 43.7092 14.8656 43.2654 15.5312 43.2654C16.1969 43.2654 16.6406 43.7092 16.6406 44.3748ZM61.5703 51.8076L36.6094 65.7857V56.1342L47.0375 50.4764C48.1469 49.9217 48.8125 48.8123 48.8125 47.592V43.5982C48.8125 43.1545 49.0344 42.8217 49.4781 42.5998L54.3594 40.1592C55.6906 41.3795 57.7984 41.3795 59.0187 40.0482C60.2391 38.717 60.2391 36.6092 58.9078 35.3889C57.5766 34.1686 55.4688 34.1686 54.2484 35.4998C53.5828 36.0545 53.25 36.8311 53.25 37.7186V38.1623L48.3687 40.6029C47.2594 41.1576 46.4828 42.267 46.4828 43.5982V47.592C46.4828 48.0357 46.2609 48.3685 45.9281 48.5904L36.6094 53.5826V42.8217L39.8266 41.1576C41.1578 42.3779 43.2656 42.3779 44.4859 41.0467C45.7062 39.7154 45.7062 37.6076 44.375 36.3873C43.0438 35.167 40.9359 35.167 39.7156 36.4982C39.1609 37.1639 38.8281 37.9404 38.8281 38.8279V39.2717L36.6094 40.3811V34.9451C36.8312 34.9451 36.9422 34.8342 37.1641 34.7232L62.125 20.7451V42.5998L56.6891 45.3732C55.3578 44.1529 53.25 44.1529 52.0297 45.4842C50.8094 46.8154 50.8094 48.9232 52.1406 50.1436C53.4719 51.3639 55.5797 51.3639 56.8 50.0326C57.3547 49.367 57.6875 48.5904 57.6875 47.7029C57.6875 47.592 57.6875 47.481 57.6875 47.2592L62.125 45.0404V50.8092C62.125 51.2529 61.9031 51.5857 61.5703 51.8076ZM55.4688 37.7186C55.4688 37.0529 55.9125 36.6092 56.5781 36.6092C57.2438 36.6092 57.6875 37.0529 57.6875 37.7186C57.6875 38.3842 57.2438 38.8279 56.5781 38.8279C55.9125 38.8279 55.4688 38.3842 55.4688 37.7186ZM41.0469 38.8279C41.0469 38.1623 41.4906 37.7186 42.1562 37.7186C42.8219 37.7186 43.2656 38.1623 43.2656 38.8279C43.2656 39.4935 42.8219 39.9373 42.1562 39.9373C41.4906 39.9373 41.0469 39.4935 41.0469 38.8279ZM55.4688 47.7029C55.4688 48.3685 55.025 48.8123 54.3594 48.8123C53.6937 48.8123 53.25 48.3685 53.25 47.7029C53.25 47.0373 53.6937 46.5935 54.3594 46.5935C55.025 46.5935 55.4688 47.0373 55.4688 47.7029Z" fill="#162454"/>
</svg>
