<svg width="60" height="60" viewBox="0 0 60 60" fill="none" xmlns="http://www.w3.org/2000/svg">
<path d="M45.2501 27.8551H55.0471C55.2507 28.369 55.6271 28.7958 56.1116 29.062C56.596 29.3282 57.1581 29.4171 57.701 29.3135C58.2439 29.2099 58.7337 28.9201 59.086 28.4942C59.4383 28.0683 59.6311 27.5329 59.6311 26.9801C59.6311 26.4274 59.4383 25.8919 59.086 25.466C58.7337 25.0401 58.2439 24.7504 57.701 24.6467C57.1581 24.5431 56.596 24.6321 56.1116 24.8983C55.6271 25.1644 55.2507 25.5912 55.0471 26.1051H45.2501V21.8101H51.5651C51.7971 21.81 52.0196 21.7178 52.1837 21.5537C52.3478 21.3896 52.44 21.1671 52.4401 20.9351V15.1701H55.0471C55.2507 15.684 55.6271 16.1108 56.1116 16.377C56.596 16.6432 57.1581 16.7321 57.701 16.6285C58.2439 16.5249 58.7337 16.2351 59.086 15.8092C59.4383 15.3833 59.6311 14.8479 59.6311 14.2951C59.6311 13.7424 59.4383 13.2069 59.086 12.781C58.7337 12.3551 58.2439 12.0654 57.701 11.9617C57.1581 11.8581 56.596 11.9471 56.1116 12.2132C55.6271 12.4794 55.2507 12.9062 55.0471 13.4201H51.5651C51.3331 13.4203 51.1106 13.5125 50.9465 13.6765C50.7825 13.8406 50.6903 14.0631 50.6901 14.2951V20.0601H45.2501V15.6251C45.25 15.3931 45.1578 15.1706 44.9937 15.0065C44.8296 14.8425 44.6071 14.7503 44.3751 14.7501H39.9401V9.31012H45.7051C45.9371 9.30999 46.1596 9.21776 46.3237 9.05369C46.4878 8.88962 46.58 8.66714 46.5801 8.43512V4.95312C47.0937 4.74953 47.5202 4.37323 47.7863 3.88901C48.0523 3.4048 48.1411 2.84298 48.0375 2.30031C47.9338 1.75764 47.6442 1.2681 47.2185 0.91598C46.7928 0.563863 46.2576 0.371216 45.7051 0.371216C45.1526 0.371216 44.6175 0.563863 44.1917 0.91598C43.766 1.2681 43.4764 1.75764 43.3728 2.30031C43.2691 2.84298 43.358 3.4048 43.624 3.88901C43.89 4.37323 44.3165 4.74953 44.8301 4.95312V7.56012H39.0651C38.8331 7.56025 38.6106 7.65248 38.4465 7.81655C38.2825 7.98061 38.1903 8.2031 38.1901 8.43512V14.7501H33.8951V4.95362C34.4087 4.75003 34.8352 4.37373 35.1013 3.88951C35.3673 3.4053 35.4561 2.84348 35.3525 2.30081C35.2488 1.75814 34.9592 1.2686 34.5335 0.91648C34.1078 0.564363 33.5726 0.371716 33.0201 0.371716C32.4676 0.371716 31.9325 0.564363 31.5067 0.91648C31.081 1.2686 30.7914 1.75814 30.6878 2.30081C30.5841 2.84348 30.673 3.4053 30.939 3.88951C31.205 4.37373 31.6315 4.75003 32.1451 4.95362V14.7501H27.8551V4.95312C28.369 4.74952 28.7958 4.3731 29.062 3.88868C29.3282 3.40426 29.4171 2.84218 29.3135 2.29924C29.2099 1.7563 28.9201 1.2665 28.4942 0.914197C28.0683 0.561893 27.5329 0.369141 26.9801 0.369141C26.4274 0.369141 25.8919 0.561893 25.466 0.914197C25.0401 1.2665 24.7504 1.7563 24.6467 2.29924C24.5431 2.84218 24.6321 3.40426 24.8983 3.88868C25.1644 4.3731 25.5912 4.74952 26.1051 4.95312V14.7501H21.8101V8.43512C21.81 8.2031 21.7178 7.98061 21.5537 7.81655C21.3896 7.65248 21.1671 7.56025 20.9351 7.56012H15.1701V4.95312C15.684 4.74952 16.1108 4.3731 16.377 3.88868C16.6432 3.40426 16.7321 2.84218 16.6285 2.29924C16.5249 1.7563 16.2351 1.2665 15.8092 0.914197C15.3833 0.561893 14.8479 0.369141 14.2951 0.369141C13.7424 0.369141 13.2069 0.561893 12.781 0.914197C12.3551 1.2665 12.0654 1.7563 11.9617 2.29924C11.8581 2.84218 11.9471 3.40426 12.2132 3.88868C12.4794 4.3731 12.9062 4.74952 13.4201 4.95312V8.43512C13.4203 8.66714 13.5125 8.88962 13.6765 9.05369C13.8406 9.21776 14.0631 9.30999 14.2951 9.31012H20.0601V14.7501H15.6251C15.3931 14.7503 15.1706 14.8425 15.0065 15.0065C14.8425 15.1706 14.7503 15.3931 14.7501 15.6251V20.0601H9.31012V14.2951C9.30999 14.0631 9.21776 13.8406 9.05369 13.6765C8.88962 13.5125 8.66714 13.4203 8.43512 13.4201H4.95362C4.75003 12.9064 4.37366 12.4797 3.88935 12.2136C3.40503 11.9475 2.84308 11.8586 2.30028 11.9623C1.75747 12.0659 1.2678 12.3556 0.915589 12.7814C0.563378 13.2072 0.370678 13.7425 0.370678 14.2951C0.370678 14.8477 0.563378 15.383 0.915589 15.8089C1.2678 16.2347 1.75747 16.5243 2.30028 16.628C2.84308 16.7316 3.40503 16.6427 3.88935 16.3766C4.37366 16.1105 4.75003 15.6839 4.95362 15.1701H7.56012V20.9351C7.56025 21.1671 7.65248 21.3896 7.81655 21.5537C7.98061 21.7178 8.2031 21.81 8.43512 21.8101H14.7501V26.1051H4.95362C4.75003 25.5915 4.37373 25.165 3.88951 24.899C3.4053 24.633 2.84348 24.5441 2.30081 24.6478C1.75814 24.7514 1.2686 25.041 0.91648 25.4667C0.564363 25.8925 0.371716 26.4276 0.371716 26.9801C0.371716 27.5326 0.564363 28.0678 0.91648 28.4935C1.2686 28.9192 1.75814 29.2088 2.30081 29.3125C2.84348 29.4161 3.4053 29.3273 3.88951 29.0613C4.37373 28.7952 4.75003 28.3687 4.95362 27.8551H14.7501V32.1451H4.95312C4.74952 31.6312 4.3731 31.2045 3.88868 30.9383C3.40426 30.6721 2.84218 30.5831 2.29924 30.6867C1.7563 30.7904 1.2665 31.0801 0.914197 31.506C0.561893 31.9319 0.369141 32.4674 0.369141 33.0201C0.369141 33.5729 0.561893 34.1083 0.914197 34.5342C1.2665 34.9601 1.7563 35.2499 2.29924 35.3535C2.84218 35.4571 3.40426 35.3682 3.88868 35.102C4.3731 34.8358 4.74952 34.409 4.95312 33.8951H14.7501V38.1901H8.43512C8.2031 38.1903 7.98061 38.2825 7.81655 38.4465C7.65248 38.6106 7.56025 38.8331 7.56012 39.0651V44.8301H4.95312C4.74952 44.3162 4.3731 43.8894 3.88868 43.6232C3.40426 43.3571 2.84218 43.2681 2.29924 43.3717C1.7563 43.4754 1.2665 43.7651 0.914197 44.191C0.561893 44.6169 0.369141 45.1524 0.369141 45.7051C0.369141 46.2579 0.561893 46.7933 0.914197 47.2192C1.2665 47.6451 1.7563 47.9349 2.29924 48.0385C2.84218 48.1421 3.40426 48.0532 3.88868 47.787C4.3731 47.5208 4.74952 47.094 4.95312 46.5801H8.43512C8.66714 46.58 8.88962 46.4878 9.05369 46.3237C9.21776 46.1596 9.30999 45.9371 9.31012 45.7051V39.9401H14.7501V44.3751C14.7503 44.6071 14.8425 44.8296 15.0065 44.9937C15.1706 45.1578 15.3931 45.25 15.6251 45.2501H20.0601V50.6901H14.2951C14.0631 50.6903 13.8406 50.7825 13.6765 50.9465C13.5125 51.1106 13.4203 51.3331 13.4201 51.5651V55.0471C12.9065 55.2507 12.48 55.627 12.214 56.1112C11.948 56.5954 11.8591 57.1573 11.9628 57.6999C12.0664 58.2426 12.356 58.7321 12.7817 59.0843C13.2075 59.4364 13.7426 59.629 14.2951 59.629C14.8476 59.629 15.3828 59.4364 15.8085 59.0843C16.2342 58.7321 16.5238 58.2426 16.6275 57.6999C16.7311 57.1573 16.6423 56.5954 16.3763 56.1112C16.1102 55.627 15.6837 55.2507 15.1701 55.0471V52.4401H20.9351C21.1671 52.44 21.3896 52.3478 21.5537 52.1837C21.7178 52.0196 21.81 51.7971 21.8101 51.5651V45.2501H26.1051V55.0466C25.5915 55.2502 25.165 55.6265 24.899 56.1107C24.633 56.5949 24.5441 57.1568 24.6478 57.6994C24.7514 58.2421 25.041 58.7316 25.4667 59.0838C25.8925 59.4359 26.4276 59.6285 26.9801 59.6285C27.5326 59.6285 28.0678 59.4359 28.4935 59.0838C28.9192 58.7316 29.2088 58.2421 29.3125 57.6994C29.4161 57.1568 29.3273 56.5949 29.0613 56.1107C28.7952 55.6265 28.3687 55.2502 27.8551 55.0466V45.2501H32.1451V55.0471C31.6312 55.2507 31.2045 55.6271 30.9383 56.1116C30.6721 56.596 30.5831 57.1581 30.6867 57.701C30.7904 58.2439 31.0801 58.7337 31.506 59.086C31.9319 59.4383 32.4674 59.6311 33.0201 59.6311C33.5729 59.6311 34.1083 59.4383 34.5342 59.086C34.9601 58.7337 35.2499 58.2439 35.3535 57.701C35.4571 57.1581 35.3682 56.596 35.102 56.1116C34.8358 55.6271 34.409 55.2507 33.8951 55.0471V45.2501H38.1901V51.5651C38.1903 51.7971 38.2825 52.0196 38.4465 52.1837C38.6106 52.3478 38.8331 52.44 39.0651 52.4401H44.8301V55.0471C44.3164 55.2507 43.8897 55.6271 43.6236 56.1114C43.3575 56.5957 43.2686 57.1577 43.3723 57.7005C43.4759 58.2433 43.7656 58.7329 44.1914 59.0851C44.6172 59.4374 45.1525 59.6301 45.7051 59.6301C46.2577 59.6301 46.793 59.4374 47.2189 59.0851C47.6447 58.7329 47.9343 58.2433 48.038 57.7005C48.1416 57.1577 48.0527 56.5957 47.7866 56.1114C47.5205 55.6271 47.0939 55.2507 46.5801 55.0471V51.5651C46.58 51.3331 46.4878 51.1106 46.3237 50.9465C46.1596 50.7825 45.9371 50.6903 45.7051 50.6901H39.9401V45.2501H44.3751C44.6071 45.25 44.8296 45.1578 44.9937 44.9937C45.1578 44.8296 45.25 44.6071 45.2501 44.3751V39.9401H50.6901V45.7051C50.6903 45.9371 50.7825 46.1596 50.9465 46.3237C51.1106 46.4878 51.3331 46.58 51.5651 46.5801H55.0471C55.2507 47.0937 55.627 47.5202 56.1112 47.7863C56.5954 48.0523 57.1573 48.1411 57.6999 48.0375C58.2426 47.9338 58.7321 47.6442 59.0843 47.2185C59.4364 46.7928 59.629 46.2576 59.629 45.7051C59.629 45.1526 59.4364 44.6175 59.0843 44.1917C58.7321 43.766 58.2426 43.4764 57.6999 43.3728C57.1573 43.2691 56.5954 43.358 56.1112 43.624C55.627 43.89 55.2507 44.3165 55.0471 44.8301H52.4401V39.0651C52.44 38.8331 52.3478 38.6106 52.1837 38.4465C52.0196 38.2825 51.7971 38.1903 51.5651 38.1901H45.2501V33.8951H55.0466C55.2502 34.4087 55.6265 34.8352 56.1107 35.1013C56.5949 35.3673 57.1568 35.4561 57.6994 35.3525C58.2421 35.2488 58.7316 34.9592 59.0838 34.5335C59.4359 34.1078 59.6285 33.5726 59.6285 33.0201C59.6285 32.4676 59.4359 31.9325 59.0838 31.5067C58.7316 31.081 58.2421 30.7914 57.6994 30.6878C57.1568 30.5841 56.5949 30.673 56.1107 30.939C55.6265 31.205 55.2502 31.6315 55.0466 32.1451H45.2501V27.8551ZM57.2501 26.3551C57.3737 26.3551 57.4946 26.3918 57.5974 26.4604C57.7001 26.5291 57.7802 26.6267 57.8275 26.7409C57.8748 26.8551 57.8872 26.9808 57.8631 27.102C57.839 27.2233 57.7795 27.3347 57.6921 27.4221C57.6047 27.5095 57.4933 27.569 57.3721 27.5931C57.2508 27.6172 57.1251 27.6048 57.0109 27.5575C56.8967 27.5102 56.7991 27.4301 56.7304 27.3273C56.6618 27.2246 56.6251 27.1037 56.6251 26.9801C56.6251 26.8143 56.6909 26.6552 56.8081 26.5378C56.9253 26.4205 57.0843 26.3544 57.2501 26.3541V26.3551ZM57.2501 13.6706C57.3737 13.6706 57.4946 13.7073 57.5974 13.7759C57.7001 13.8446 57.7802 13.9422 57.8275 14.0564C57.8748 14.1706 57.8872 14.2963 57.8631 14.4175C57.839 14.5388 57.7795 14.6502 57.6921 14.7376C57.6047 14.825 57.4933 14.8845 57.3721 14.9086C57.2508 14.9327 57.1251 14.9203 57.0109 14.873C56.8967 14.8257 56.7991 14.7456 56.7304 14.6428C56.6618 14.5401 56.6251 14.4192 56.6251 14.2956C56.6251 14.1298 56.6909 13.9707 56.8081 13.8533C56.9253 13.736 57.0843 13.6699 57.2501 13.6696V13.6706ZM45.7056 2.12512C45.8292 2.12512 45.9501 2.16177 46.0528 2.23045C46.1556 2.29913 46.2357 2.39674 46.283 2.51094C46.3303 2.62515 46.3427 2.75081 46.3186 2.87205C46.2945 2.99329 46.235 3.10465 46.1476 3.19206C46.0602 3.27947 45.9488 3.33899 45.8275 3.36311C45.7063 3.38723 45.5806 3.37485 45.4664 3.32754C45.3522 3.28024 45.2546 3.20013 45.186 3.09735C45.1173 2.99457 45.0806 2.87373 45.0806 2.75012C45.0809 2.58444 45.1468 2.42562 45.264 2.30847C45.3811 2.19132 45.5399 2.12538 45.7056 2.12512ZM33.0211 2.12512C33.1447 2.12512 33.2656 2.16177 33.3684 2.23045C33.4711 2.29913 33.5512 2.39674 33.5985 2.51094C33.6458 2.62515 33.6582 2.75081 33.6341 2.87205C33.61 2.99329 33.5505 3.10465 33.4631 3.19206C33.3757 3.27947 33.2643 3.33899 33.1431 3.36311C33.0218 3.38723 32.8961 3.37485 32.7819 3.32754C32.6677 3.28024 32.5701 3.20013 32.5014 3.09735C32.4328 2.99457 32.3961 2.87373 32.3961 2.75012C32.3964 2.58444 32.4623 2.42562 32.5795 2.30847C32.6966 2.19132 32.8554 2.12538 33.0211 2.12512ZM26.9791 2.12512C27.1027 2.12512 27.2236 2.16177 27.3263 2.23045C27.4291 2.29913 27.5092 2.39674 27.5565 2.51094C27.6038 2.62515 27.6162 2.75081 27.5921 2.87205C27.568 2.99329 27.5085 3.10465 27.4211 3.19206C27.3337 3.27947 27.2223 3.33899 27.101 3.36311C26.9798 3.38723 26.8541 3.37485 26.7399 3.32754C26.6257 3.28024 26.5281 3.20013 26.4594 3.09735C26.3908 2.99457 26.3541 2.87373 26.3541 2.75012C26.3542 2.5844 26.4201 2.4255 26.5373 2.30832C26.6545 2.19114 26.8134 2.12525 26.9791 2.12512ZM14.2946 2.12512C14.4182 2.12512 14.5391 2.16177 14.6418 2.23045C14.7446 2.29913 14.8247 2.39674 14.872 2.51094C14.9193 2.62515 14.9317 2.75081 14.9076 2.87205C14.8835 2.99329 14.824 3.10465 14.7366 3.19206C14.6492 3.27947 14.5378 3.33899 14.4165 3.36311C14.2953 3.38723 14.1696 3.37485 14.0554 3.32754C13.9412 3.28024 13.8436 3.20013 13.775 3.09735C13.7063 2.99457 13.6696 2.87373 13.6696 2.75012C13.6698 2.5844 13.7356 2.4255 13.8528 2.30832C13.97 2.19114 14.1289 2.12525 14.2946 2.12512ZM2.75012 14.9196C2.62651 14.9196 2.50567 14.883 2.40289 14.8143C2.30011 14.7456 2.22 14.648 2.17269 14.5338C2.12539 14.4196 2.11301 14.2939 2.13713 14.1727C2.16124 14.0514 2.22077 13.9401 2.30818 13.8527C2.39558 13.7653 2.50695 13.7057 2.62819 13.6816C2.74943 13.6575 2.87509 13.6699 2.9893 13.7172C3.1035 13.7645 3.20111 13.8446 3.26979 13.9474C3.33846 14.0502 3.37512 14.171 3.37512 14.2946C3.37499 14.4603 3.3091 14.6192 3.19191 14.7364C3.07473 14.8536 2.91584 14.9195 2.75012 14.9196ZM2.75012 27.6041C2.62651 27.6041 2.50567 27.5675 2.40289 27.4988C2.30011 27.4301 2.22 27.3325 2.17269 27.2183C2.12539 27.1041 2.11301 26.9784 2.13713 26.8572C2.16124 26.7359 2.22077 26.6246 2.30818 26.5372C2.39558 26.4498 2.50695 26.3902 2.62819 26.3661C2.74943 26.342 2.87509 26.3544 2.9893 26.4017C3.1035 26.449 3.20111 26.5291 3.26979 26.6319C3.33846 26.7347 3.37512 26.8555 3.37512 26.9791C3.37499 27.1448 3.3091 27.3037 3.19191 27.4209C3.07473 27.5381 2.91584 27.604 2.75012 27.6041ZM2.75012 33.6461C2.62651 33.6461 2.50567 33.6095 2.40289 33.5408C2.30011 33.4721 2.22 33.3745 2.17269 33.2603C2.12539 33.1461 2.11301 33.0204 2.13713 32.8992C2.16124 32.7779 2.22077 32.6666 2.30818 32.5792C2.39558 32.4918 2.50695 32.4322 2.62819 32.4081C2.74943 32.384 2.87509 32.3964 2.9893 32.4437C3.1035 32.491 3.20111 32.5711 3.26979 32.6739C3.33846 32.7767 3.37512 32.8975 3.37512 33.0211C3.37485 33.1868 3.30892 33.3456 3.19177 33.4628C3.07462 33.5799 2.9158 33.6459 2.75012 33.6461ZM2.75012 46.3306C2.62651 46.3306 2.50567 46.294 2.40289 46.2253C2.30011 46.1566 2.22 46.059 2.17269 45.9448C2.12539 45.8306 2.11301 45.7049 2.13713 45.5837C2.16124 45.4624 2.22077 45.3511 2.30818 45.2637C2.39558 45.1763 2.50695 45.1167 2.62819 45.0926C2.74943 45.0685 2.87509 45.0809 2.9893 45.1282C3.1035 45.1755 3.20111 45.2556 3.26979 45.3584C3.33846 45.4612 3.37512 45.582 3.37512 45.7056C3.37485 45.8713 3.30892 46.0301 3.19177 46.1473C3.07462 46.2644 2.9158 46.3304 2.75012 46.3306ZM14.2946 57.8751C14.171 57.8751 14.0502 57.8385 13.9474 57.7698C13.8446 57.7011 13.7645 57.6035 13.7172 57.4893C13.6699 57.3751 13.6575 57.2494 13.6816 57.1282C13.7057 57.0069 13.7653 56.8956 13.8527 56.8082C13.9401 56.7208 14.0514 56.6612 14.1727 56.6371C14.2939 56.613 14.4196 56.6254 14.5338 56.6727C14.648 56.72 14.7456 56.8001 14.8143 56.9029C14.883 57.0057 14.9196 57.1265 14.9196 57.2501C14.9194 57.4158 14.8534 57.5746 14.7363 57.6918C14.6191 57.8089 14.4603 57.8749 14.2946 57.8751ZM26.9791 57.8751C26.8555 57.8751 26.7347 57.8385 26.6319 57.7698C26.5291 57.7011 26.449 57.6035 26.4017 57.4893C26.3544 57.3751 26.342 57.2494 26.3661 57.1282C26.3902 57.0069 26.4498 56.8956 26.5372 56.8082C26.6246 56.7208 26.7359 56.6612 26.8572 56.6371C26.9784 56.613 27.1041 56.6254 27.2183 56.6727C27.3325 56.72 27.4301 56.8001 27.4988 56.9029C27.5675 57.0057 27.6041 57.1265 27.6041 57.2501C27.6039 57.4158 27.5379 57.5746 27.4208 57.6918C27.3036 57.8089 27.1448 57.8749 26.9791 57.8751ZM33.0211 57.8751C32.8975 57.8751 32.7767 57.8385 32.6739 57.7698C32.5711 57.7011 32.491 57.6035 32.4437 57.4893C32.3964 57.3751 32.384 57.2494 32.4081 57.1282C32.4322 57.0069 32.4918 56.8956 32.5792 56.8082C32.6666 56.7208 32.7779 56.6612 32.8992 56.6371C33.0204 56.613 33.1461 56.6254 33.2603 56.6727C33.3745 56.72 33.4721 56.8001 33.5408 56.9029C33.6095 57.0057 33.6461 57.1265 33.6461 57.2501C33.646 57.4158 33.5801 57.5747 33.4629 57.6919C33.3457 57.8091 33.1868 57.875 33.0211 57.8751ZM45.7056 57.8751C45.582 57.8751 45.4612 57.8385 45.3584 57.7698C45.2556 57.7011 45.1755 57.6035 45.1282 57.4893C45.0809 57.3751 45.0685 57.2494 45.0926 57.1282C45.1167 57.0069 45.1763 56.8956 45.2637 56.8082C45.3511 56.7208 45.4624 56.6612 45.5837 56.6371C45.7049 56.613 45.8306 56.6254 45.9448 56.6727C46.059 56.72 46.1566 56.8001 46.2253 56.9029C46.294 57.0057 46.3306 57.1265 46.3306 57.2501C46.3305 57.4158 46.2646 57.5747 46.1474 57.6919C46.0302 57.8091 45.8713 57.875 45.7056 57.8751ZM57.2501 45.0806C57.3737 45.0806 57.4946 45.1173 57.5974 45.186C57.7001 45.2546 57.7802 45.3522 57.8275 45.4664C57.8748 45.5806 57.8872 45.7063 57.8631 45.8275C57.839 45.9488 57.7795 46.0602 57.6921 46.1476C57.6047 46.235 57.4933 46.2945 57.3721 46.3186C57.2508 46.3427 57.1251 46.3303 57.0109 46.283C56.8967 46.2357 56.7991 46.1556 56.7304 46.0528C56.6618 45.9501 56.6251 45.8292 56.6251 45.7056C56.6253 45.5399 56.6911 45.381 56.8083 45.2638C56.9255 45.1466 57.0844 45.0808 57.2501 45.0806ZM57.2501 32.3961C57.3737 32.3961 57.4946 32.4328 57.5974 32.5014C57.7001 32.5701 57.7802 32.6677 57.8275 32.7819C57.8748 32.8961 57.8872 33.0218 57.8631 33.1431C57.839 33.2643 57.7795 33.3757 57.6921 33.4631C57.6047 33.5505 57.4933 33.61 57.3721 33.6341C57.2508 33.6582 57.1251 33.6458 57.0109 33.5985C56.8967 33.5512 56.7991 33.4711 56.7304 33.3684C56.6618 33.2656 56.6251 33.1447 56.6251 33.0211C56.6253 32.8554 56.6911 32.6965 56.8083 32.5793C56.9255 32.4621 57.0844 32.3963 57.2501 32.3961ZM43.5001 43.5001H16.5001V16.5001H43.5001V43.5001Z" fill="#162454"/>
</svg>
