<svg width="71" height="71" viewBox="0 0 64 64" fill="none" xmlns="http://www.w3.org/2000/svg">
<g clip-path="url(#clip0)">
<path d="M2.16465 24.7026C5.48935 21.1362 17.4669 9.5 32.0001 9.5C46.5333 9.5 58.5108 21.1362 61.836 24.7026C62.3067 25.2075 63.0978 25.2349 63.6026 24.7642C64.1075 24.2935 64.1354 23.5024 63.6646 22.9976C55.5621 14.3076 43.9444 7 32.0001 7C20.0602 7 8.44199 14.3032 0.336033 22.9976C-0.135159 23.5024 -0.107327 24.2935 0.397556 24.7642C0.902439 25.2354 1.69345 25.2075 2.16465 24.7026Z" fill="#162454"/>
<path d="M54.4193 24.8164C48.1903 19.271 40.3358 14.5 31.9999 14.5C23.6615 14.5 15.8065 19.2734 9.58044 24.8164C3.92273 29.853 0.378296 34.8184 0.230347 35.0269C-0.0767822 35.46 -0.0767822 36.04 0.230347 36.4731C0.378296 36.6821 3.92273 41.647 9.58044 46.6836C15.8099 52.2295 23.6639 57 31.9999 57C40.3383 57 48.1927 52.2266 54.4193 46.6836C60.077 41.647 63.6215 36.6821 63.7694 36.4731C64.0765 36.04 64.0765 35.46 63.7694 35.0269C63.6215 34.8184 60.077 29.853 54.4193 24.8164ZM52.7181 44.8511C47.765 49.2529 40.1498 54.5 31.9999 54.5C23.85 54.5 16.2347 49.2529 11.2816 44.8511C7.05798 41.0977 3.99402 37.2979 2.80945 35.75C3.99451 34.2017 7.05847 30.4023 11.2816 26.6489C16.2347 22.2471 23.85 17 31.9999 17C40.1498 17 47.765 22.2471 52.7181 26.6489C56.9413 30.4023 60.0052 34.2017 61.1903 35.75C60.0052 37.2983 56.9413 41.0977 52.7181 44.8511Z" fill="#162454"/>
<path d="M47.6222 34.2693C47.2378 34.2693 46.9176 33.9819 46.8535 33.5988C45.8607 26.7984 40.3841 21.4346 33.5304 20.5407C33.114 20.4768 32.7937 20.0937 32.8578 19.6786C32.9218 19.2636 33.3062 18.9443 33.7225 19.0082C41.2488 19.9979 47.2699 25.9044 48.3908 33.4073C48.4549 33.8223 48.1666 34.2374 47.7182 34.3012C47.7182 34.2693 47.6862 34.2693 47.6222 34.2693Z" fill="#162454"/>
<path d="M43.5846 47.5833C43.3925 47.5833 43.2003 47.5195 43.0722 47.3918C42.7519 47.1044 42.7199 46.6255 43.0081 46.3062C45.218 43.8798 46.5631 40.9106 46.9474 37.6859C47.0115 37.2709 47.3958 36.9516 47.8122 37.0155C48.2285 37.0793 48.5488 37.4625 48.4847 37.8775C48.0684 41.4214 46.5631 44.7099 44.1611 47.3598C44.001 47.5195 43.7768 47.5833 43.5846 47.5833Z" fill="#162454"/>
<path d="M33.6557 52.7871C33.2714 52.7871 32.9511 52.4997 32.8871 52.1166C32.823 51.7015 33.1433 51.2865 33.5596 51.2546C36.1538 50.9034 38.6519 49.9136 40.7657 48.3492C41.118 48.0938 41.5984 48.1576 41.8546 48.5088C42.1108 48.86 42.0468 49.3389 41.6945 49.5944C39.3565 51.3184 36.6342 52.4359 33.7518 52.819C33.7198 52.7871 33.6878 52.7871 33.6557 52.7871Z" fill="#162454"/>
<path d="M29.3639 52.7874C29.3319 52.7874 29.2999 52.7874 29.2679 52.7874C21.4853 51.7658 15.4323 45.6358 14.5355 37.8775C14.4715 37.4625 14.7917 37.0793 15.2081 37.0155C15.6244 36.9516 16.0088 37.2709 16.0728 37.6859C16.9055 44.7418 22.3821 50.3291 29.46 51.2549C29.8764 51.3188 30.1966 51.7019 30.1326 52.117C30.1005 52.5001 29.7483 52.7874 29.3639 52.7874Z" fill="#162454"/>
<path d="M15.3715 34.2691C15.3394 34.2691 15.3074 34.2691 15.2433 34.2691C14.827 34.2052 14.5388 33.8221 14.5708 33.3751C15.0832 29.927 16.6205 26.7343 19.0545 24.1801C19.3428 23.8609 19.8552 23.8609 20.1435 24.1482C20.4637 24.4355 20.4637 24.9464 20.1755 25.2337C17.9656 27.5644 16.5564 30.4378 16.1081 33.5986C16.076 33.9817 15.7558 34.2691 15.3715 34.2691Z" fill="#162454"/>
<path d="M31.3758 49.944C23.7534 49.944 17.5723 43.7501 17.5723 36.1834C17.5723 28.5848 23.7855 22.4229 31.3758 22.4229C38.9982 22.4229 45.1794 28.6167 45.1794 36.1834C45.1794 43.782 38.9982 49.944 31.3758 49.944ZM31.3758 23.9553C24.6182 23.9553 19.1096 29.4468 19.1096 36.1834C19.1096 42.92 24.6182 48.4115 31.3758 48.4115C38.1335 48.4115 43.6421 42.92 43.6421 36.1834C43.6101 29.4468 38.1335 23.9553 31.3758 23.9553Z" fill="#162454"/>
<path d="M15.3048 39.2495C16.2423 39.2495 17.0023 38.4919 17.0023 37.5574C17.0023 36.6228 16.2423 35.8652 15.3048 35.8652C14.3674 35.8652 13.6074 36.6228 13.6074 37.5574C13.6074 38.4919 14.3674 39.2495 15.3048 39.2495Z" fill="#162454"/>
<path d="M47.7795 35.3862C48.7169 35.3862 49.4769 34.6286 49.4769 33.6941C49.4769 32.7595 48.7169 32.002 47.7795 32.002C46.842 32.002 46.082 32.7595 46.082 33.6941C46.082 34.6286 46.842 35.3862 47.7795 35.3862Z" fill="#162454"/>
<path fill-rule="evenodd" clip-rule="evenodd" d="M35.8374 31.8556C35.8374 29.4292 33.8518 27.4497 31.4177 27.4497C28.9837 27.4497 26.998 29.4292 26.998 31.8556C26.998 33.3881 27.7667 34.7291 28.9837 35.5272L28.989 35.5009C29.6917 35.9446 30.5211 36.2295 31.414 36.2295C32.3098 36.2295 33.1416 35.9747 33.8457 35.4968L33.8518 35.5272C35.0368 34.7291 35.8374 33.3881 35.8374 31.8556ZM28.9797 35.5273L27.7626 42.9343C27.6666 43.509 28.0829 43.9879 28.6594 43.9879H34.168C34.7765 43.9879 35.1608 43.509 35.0647 42.9343L33.8477 35.5273C33.1431 35.9743 32.3104 36.2616 31.4137 36.2616C30.5169 36.2616 29.6842 35.9743 28.9797 35.5273Z" fill="#162454"/>
</g>
<defs>
<clipPath id="clip0">
<rect width="64" height="64" fill="white"/>
</clipPath>
</defs>
</svg>
