<svg width="108" height="80" viewBox="0 0 108 80" fill="none" xmlns="http://www.w3.org/2000/svg">
<path fill-rule="evenodd" clip-rule="evenodd" d="M49.9529 1.90119C36.6509 1.90119 25.7112 11.1602 23.8861 23.1146L23.6943 24.3708L22.5434 23.8321C20.5766 22.9115 18.4281 22.4445 16.2565 22.4657C14.085 22.4868 11.946 22.9956 9.9975 23.9544C8.04899 24.9131 6.34078 26.2974 4.99907 28.005C3.65735 29.7125 2.71641 31.6997 2.24576 33.8197C1.7751 35.9397 1.78675 38.1384 2.27986 40.2533C2.77296 42.3682 3.73492 44.3453 5.09466 46.0385C6.45441 47.7317 8.17719 49.0979 10.1358 50.0359C12.0943 50.974 14.2386 51.46 16.4102 51.4582H87.5132C87.5132 51.4582 87.5132 51.4582 87.5132 51.4582C92.3281 51.4575 96.9458 49.5444 100.35 46.1395C103.755 42.7346 105.667 38.1168 105.667 33.3018C105.667 29.899 104.711 26.5647 102.908 23.6791C101.104 20.7935 98.5262 18.4728 95.4675 16.9816C92.4089 15.4904 88.9927 14.8887 85.6086 15.2453C82.2246 15.6018 79.0088 16.9021 76.328 18.998L75.3003 19.8015L74.8503 18.577C71.2931 8.89692 61.5101 1.90119 49.9529 1.90119ZM22.2188 21.6318C24.7181 9.27335 36.2221 0 49.9529 0C61.8118 0 71.999 6.91273 76.1737 16.7556C78.9166 14.8762 82.0897 13.7043 85.4094 13.3545C89.1479 12.9607 92.9217 13.6253 96.3007 15.2727C99.6796 16.92 102.528 19.4837 104.52 22.6715C106.512 25.8592 107.569 29.5427 107.569 33.3018C107.569 38.6209 105.456 43.7223 101.695 47.4838C97.9337 51.2452 92.8326 53.3587 87.5134 53.3594H16.4119C13.9554 53.3615 11.5299 52.8117 9.3145 51.7506C7.09908 50.6895 5.15036 49.1442 3.61229 47.2289C2.07422 45.3136 0.986102 43.0773 0.428327 40.685C-0.129447 38.2927 -0.142631 35.8057 0.38975 33.4077C0.922131 31.0096 1.98647 28.7619 3.50415 26.8304C5.02183 24.8989 6.95406 23.333 9.15811 22.2485C11.3622 21.164 13.7817 20.5885 16.238 20.5646C18.2842 20.5446 20.3124 20.9079 22.2188 21.6318Z" fill="#0EE9C4"/>
<path d="M52.4901 18.5532C45.9762 18.5532 39.9375 20.8608 34.8756 25.2264C34.6545 25.4278 34.5149 25.7033 34.4834 26.0007C34.4518 26.2981 34.5305 26.5968 34.7045 26.8401L36.1755 28.8506C36.2563 28.9665 36.3609 29.0638 36.4824 29.136C36.6038 29.2082 36.7393 29.2536 36.8798 29.2691C37.0202 29.2847 37.1624 29.27 37.2967 29.2261C37.431 29.1822 37.5543 29.11 37.6585 29.0145C41.8957 25.3381 47.1644 23.128 53.0177 23.128C58.5787 23.128 63.6454 25.1218 67.7662 28.4798C67.873 28.5682 67.9971 28.6333 68.1305 28.6711C68.2638 28.7088 68.4036 28.7184 68.5409 28.6992C68.6781 28.68 68.8099 28.6324 68.9277 28.5594C69.0456 28.4864 69.147 28.3897 69.2254 28.2755L70.2758 26.8496C70.4506 26.6067 70.53 26.3081 70.4988 26.0106C70.4677 25.713 70.3283 25.4373 70.1071 25.2359C65.0451 20.8608 59.0065 18.5532 52.4901 18.5532Z" fill="#0EE9C4"/>
<path d="M52.4908 27.7241C47.8981 27.7244 43.4633 29.4009 40.019 32.4391C39.8048 32.6415 39.6715 32.9148 39.644 33.2082C39.6164 33.5016 39.6965 33.795 39.8693 34.0337L41.3356 36.0418C41.418 36.1587 41.5245 36.2566 41.6479 36.3289C41.7713 36.4013 41.9087 36.4464 42.0509 36.4612C42.1932 36.4761 42.337 36.4604 42.4726 36.4151C42.6083 36.3698 42.7327 36.296 42.8375 36.1987C45.5366 33.7791 49.0088 32.3991 52.6325 32.3059C56.2562 32.2128 59.7948 33.4124 62.6147 35.6901C62.7221 35.7753 62.8458 35.8376 62.9783 35.8732C63.1107 35.9087 63.249 35.9166 63.3846 35.8966C63.5203 35.8766 63.6504 35.8289 63.7669 35.7566C63.8834 35.6843 63.9838 35.5889 64.062 35.4762L65.1052 34.0337C65.2801 33.7912 65.3593 33.4927 65.3277 33.1954C65.2961 32.8981 65.156 32.6229 64.9341 32.4224C61.4948 29.3968 57.0716 27.7267 52.4908 27.7241Z" fill="#0EE9C4"/>
<path d="M45.2398 39.6517C45.0313 39.8542 44.9031 40.1254 44.8791 40.415C44.8551 40.7047 44.9368 40.9933 45.1091 41.2273L46.5683 43.2307C46.6456 43.3466 46.7466 43.4447 46.8647 43.5185C46.9828 43.5923 47.1153 43.6401 47.2533 43.6588C47.3913 43.6774 47.5318 43.6665 47.6652 43.6267C47.7987 43.5869 47.9222 43.5192 48.0274 43.428C49.3919 42.182 51.1703 41.4867 53.0181 41.4769C54.6086 41.4863 56.153 42.0117 57.4193 42.9741C57.5267 43.048 57.6477 43.0998 57.7754 43.1263C57.903 43.1529 58.0347 43.1537 58.1626 43.1286C58.2906 43.1036 58.4122 43.0533 58.5205 42.9807C58.6287 42.908 58.7213 42.8145 58.7929 42.7055L59.8719 41.2273C60.045 40.9937 60.1274 40.7052 60.1038 40.4154C60.0802 40.1256 59.9522 39.8542 59.7435 39.6517C57.7274 37.9133 55.1538 36.957 52.4917 36.957C49.8295 36.957 47.256 37.9133 45.2398 39.6517Z" fill="#0EE9C4"/>
<path fill-rule="evenodd" clip-rule="evenodd" d="M51.541 65.1633V52.4087H53.4422V65.1633H51.541Z" fill="#0EE9C4"/>
<path fill-rule="evenodd" clip-rule="evenodd" d="M71.4578 71.5371V52.4087H69.5566V73.4383H80.4291V71.5371H71.4578Z" fill="#0EE9C4"/>
<path fill-rule="evenodd" clip-rule="evenodd" d="M35.4271 52.4087V73.4383H24.5547V71.5371H33.5259V52.4087H35.4271Z" fill="#0EE9C4"/>
<path fill-rule="evenodd" clip-rule="evenodd" d="M17.9945 66.8768C14.8957 66.8768 12.3836 69.3889 12.3836 72.4877C12.3836 75.5865 14.8957 78.0986 17.9945 78.0986C21.0933 78.0986 23.6054 75.5865 23.6054 72.4877C23.6054 69.3889 21.0933 66.8768 17.9945 66.8768ZM10.4824 72.4877C10.4824 68.3389 13.8457 64.9756 17.9945 64.9756C22.1433 64.9756 25.5066 68.3389 25.5066 72.4877C25.5066 76.6365 22.1433 79.9998 17.9945 79.9998C13.8457 79.9998 10.4824 76.6365 10.4824 72.4877Z" fill="#0EE9C4"/>
<path fill-rule="evenodd" clip-rule="evenodd" d="M86.9906 66.8768C83.8918 66.8768 81.3797 69.3889 81.3797 72.4877C81.3797 75.5865 83.8918 78.0986 86.9906 78.0986C90.0894 78.0986 92.6015 75.5865 92.6015 72.4877C92.6015 69.3889 90.0894 66.8768 86.9906 66.8768ZM79.4785 72.4877C79.4785 68.3389 82.8418 64.9756 86.9906 64.9756C91.1394 64.9756 94.5027 68.3389 94.5027 72.4877C94.5027 76.6365 91.1394 79.9998 86.9906 79.9998C82.8418 79.9998 79.4785 76.6365 79.4785 72.4877Z" fill="#0EE9C4"/>
<path fill-rule="evenodd" clip-rule="evenodd" d="M52.4906 66.1141C49.3918 66.1141 46.8797 68.6262 46.8797 71.725C46.8797 74.8238 49.3918 77.3359 52.4906 77.3359C55.5894 77.3359 58.1015 74.8238 58.1015 71.725C58.1015 68.6262 55.5894 66.1141 52.4906 66.1141ZM44.9785 71.725C44.9785 67.5762 48.3418 64.2129 52.4906 64.2129C56.6394 64.2129 60.0027 67.5762 60.0027 71.725C60.0027 75.8738 56.6394 79.2371 52.4906 79.2371C48.3418 79.2371 44.9785 75.8738 44.9785 71.725Z" fill="#0EE9C4"/>
</svg>
