<svg width="64" height="64" viewBox="0 0 64 64" fill="none" xmlns="http://www.w3.org/2000/svg">
<g clip-path="url(#clip0)">
<path d="M22 27C22.6899 27 23.25 26.4399 23.25 25.75C23.25 25.0688 22.6963 24.5 22 24.5C21.3101 24.5 20.75 25.0601 20.75 25.75C20.75 26.4453 21.3174 27 22 27Z" fill="#162454"/>
<path d="M2.16465 24.7026C5.48935 21.1362 17.4669 9.5 32.0001 9.5C46.5333 9.5 58.5108 21.1362 61.836 24.7026C62.3067 25.2075 63.0978 25.2349 63.6026 24.7642C64.1075 24.2935 64.1354 23.5024 63.6646 22.9976C55.5621 14.3076 43.9444 7 32.0001 7C20.0602 7 8.44199 14.3032 0.336033 22.9976C-0.135159 23.5024 -0.107327 24.2935 0.397556 24.7642C0.902439 25.2354 1.69345 25.2075 2.16465 24.7026Z" fill="#162454"/>
<path d="M54.4193 24.8164C48.1903 19.271 40.3358 14.5 31.9999 14.5C23.6615 14.5 15.8065 19.2734 9.58044 24.8164C3.92273 29.853 0.378296 34.8184 0.230347 35.0269C-0.0767822 35.46 -0.0767822 36.04 0.230347 36.4731C0.378296 36.6821 3.92273 41.647 9.58044 46.6836C15.8099 52.2295 23.6639 57 31.9999 57C40.3383 57 48.1927 52.2266 54.4193 46.6836C60.077 41.647 63.6215 36.6821 63.7694 36.4731C64.0765 36.04 64.0765 35.46 63.7694 35.0269C63.6215 34.8184 60.077 29.853 54.4193 24.8164ZM52.7181 44.8511C47.765 49.2529 40.1498 54.5 31.9999 54.5C23.85 54.5 16.2347 49.2529 11.2816 44.8511C7.05798 41.0977 3.99402 37.2979 2.80945 35.75C3.99451 34.2017 7.05847 30.4023 11.2816 26.6489C16.2347 22.2471 23.85 17 31.9999 17C40.1498 17 47.765 22.2471 52.7181 26.6489C56.9413 30.4023 60.0052 34.2017 61.1903 35.75C60.0052 37.2983 56.9413 41.0977 52.7181 44.8511Z" fill="#162454"/>
<path d="M31.9998 20.75C29.8407 20.75 27.9935 21.147 25.8226 22.0771C25.1878 22.3491 24.8939 23.084 25.1659 23.7188C25.4378 24.353 26.1727 24.6475 26.807 24.375C28.6478 23.5864 30.2005 23.25 31.9998 23.25C38.8924 23.25 44.4998 28.8574 44.4998 35.75C44.4998 37.0562 44.2982 38.3159 43.9247 39.5H38.035C37.5189 38.0449 36.1292 37 34.4998 37C32.432 37 30.7498 38.6821 30.7498 40.75C30.7498 42.8179 32.432 44.5 34.4998 44.5C36.1292 44.5 37.5189 43.4536 38.035 41.9985H42.8216C40.6571 45.7319 36.617 48.25 31.9998 48.25C26.4788 48.25 21.6844 44.6504 20.0741 39.5H24.4998C24.8055 39.5 25.1004 39.3882 25.3289 39.1851L30.8265 34.311C31.1956 34.4331 31.5902 34.5 31.9998 34.5C34.0677 34.5 35.7498 32.8179 35.7498 30.75C35.7498 28.6821 34.0677 27 31.9998 27C29.932 27 28.2498 28.6821 28.2498 30.75C28.2498 31.4824 28.4618 32.1655 28.826 32.7437L24.0252 37H19.5589C19.3324 34.8403 19.6776 32.7676 20.6248 30.5576C20.8968 29.9229 20.6029 29.188 19.9686 28.916C19.3338 28.644 18.599 28.9385 18.327 29.5728C17.0457 32.562 16.6932 35.4751 17.2479 38.4756C17.2484 38.4775 17.2489 38.4795 17.2489 38.4814C17.2513 38.4927 17.2533 38.5044 17.2557 38.5161C18.5775 45.6074 24.7713 50.75 31.9998 50.75C40.4046 50.75 46.9998 43.9541 46.9998 35.75C46.9998 27.479 40.2708 20.75 31.9998 20.75ZM34.4998 42C33.8104 42 33.2498 41.4395 33.2498 40.75C33.2498 40.0605 33.8104 39.5 34.4998 39.5C35.1893 39.5 35.7498 40.0605 35.7498 40.75C35.7498 41.4395 35.1893 42 34.4998 42ZM31.9998 29.5C32.6893 29.5 33.2498 30.0605 33.2498 30.75C33.2498 31.4395 32.6893 32 31.9998 32C31.3104 32 30.7498 31.4395 30.7498 30.75C30.7498 30.0605 31.3109 29.5 31.9998 29.5Z" fill="#162454"/>
</g>
<defs>
<clipPath id="clip0">
<rect width="64" height="64" fill="white"/>
</clipPath>
</defs>
</svg>
