<svg width="64" height="64" viewBox="0 0 64 64" fill="none" xmlns="http://www.w3.org/2000/svg">
<g clip-path="url(#clip0)">
<path d="M56.2641 43.3201L53.873 39.9675C53.6384 39.6386 53.2594 39.4434 52.8553 39.4434H48.8958C49.905 37.1649 50.467 34.6461 50.467 31.9982C50.467 29.3517 49.9054 26.8341 48.8966 24.5566H52.8551C53.2593 24.5566 53.6386 24.3612 53.8731 24.0321L56.2635 20.6779C56.9288 21.0169 57.6585 21.1873 58.3888 21.1873C59.5849 21.1873 60.7816 20.7321 61.6924 19.8221C62.576 18.9391 63.0624 17.7653 63.0615 16.517C63.0606 15.2704 62.574 14.0994 61.6924 13.2207C59.8709 11.4005 56.9066 11.4002 55.0851 13.2207C53.5284 14.7762 53.3049 17.1686 54.4121 18.9683L52.2111 22.0567H47.5513C46.1095 19.8131 44.1951 17.9004 41.9496 16.4597V11.8014L45.0361 9.6035C46.8366 10.7128 49.2329 10.4882 50.7921 8.93025C51.6758 8.04725 52.162 6.87337 52.1611 5.62512C52.1603 4.3785 51.6738 3.2075 50.7921 2.32875C48.9703 0.5085 46.0061 0.5085 44.1848 2.32875C42.7203 3.79212 42.4345 5.9965 43.3278 7.75087L39.9745 10.1388C39.6451 10.3733 39.4496 10.7526 39.4496 11.157V15.1163C37.5306 14.2674 35.4411 13.7362 33.2478 13.589V9.16875C35.219 8.62125 36.6696 6.81137 36.6696 4.66925C36.6695 2.09462 34.5738 0 31.9976 0C29.4215 0 27.3258 2.09462 27.3258 4.66925C27.3258 6.81137 28.7764 8.62125 30.7476 9.16875V13.5887C28.5731 13.7355 26.4809 14.2624 24.5493 15.1138V11.1569C24.5493 10.7524 24.3536 10.3729 24.024 10.1384L20.6708 7.7525C21.0041 7.10188 21.1803 6.377 21.1798 5.625C21.1789 4.37838 20.6923 3.20737 19.8106 2.32875C18.928 1.44675 17.755 0.961125 16.5074 0.961125C15.2593 0.961125 14.0866 1.44725 13.208 2.3275C12.3254 3.20738 11.8386 4.37838 11.8378 5.625C11.8369 6.87337 12.3233 8.04712 13.2056 8.929C14.0868 9.81162 15.2593 10.2978 16.5074 10.2978C17.3874 10.2978 18.2305 10.056 18.9606 9.604L22.0493 11.8016V16.4531C19.8128 17.8819 17.8885 19.7869 16.4354 22.0566H11.7843L9.58488 18.9704C10.0374 18.24 10.28 17.3972 10.2794 16.5169C10.2785 15.2702 9.79188 14.0992 8.91026 13.2206C7.08888 11.4004 4.12488 11.4001 2.30301 13.2206C0.483883 15.0382 0.483383 17.9991 2.30301 19.8221C3.21376 20.7323 4.41013 21.1873 5.60663 21.1873C6.33688 21.1873 7.06663 21.0168 7.73188 20.6779L10.1223 24.0321C10.3568 24.3612 10.736 24.5566 11.1403 24.5566H15.0954C14.8924 25.0173 14.7068 25.4885 14.5403 25.9702C14.3146 26.6227 14.6608 27.3345 15.3133 27.56C15.9658 27.7856 16.6775 27.4396 16.9031 26.787C17.2501 25.7833 17.691 24.831 18.2139 23.9385C18.2145 23.9374 18.2151 23.9364 18.2159 23.9352C21.0401 19.1175 26.2553 16.0456 31.998 16.0456C40.8035 16.0456 47.9674 23.2019 47.9674 31.9981C47.9674 40.7962 40.8035 47.9541 31.998 47.9541C26.27 47.9541 21.0679 44.8969 18.2366 40.0988C18.2264 40.0798 18.2145 40.0619 18.2033 40.0436C17.6821 39.1522 17.2425 38.2013 16.8964 37.199C16.671 36.5464 15.9588 36.2001 15.3069 36.4255C14.6543 36.6509 14.308 37.3625 14.5334 38.015C14.7015 38.5019 14.8891 38.9779 15.0944 39.4431H11.1406C10.7366 39.4431 10.3575 39.6384 10.1229 39.9673L7.73163 43.3199C5.97676 42.428 3.77026 42.7122 2.30226 44.1753C0.485133 45.9956 0.485133 48.9575 2.30338 50.7791C3.21426 51.6894 4.41038 52.1444 5.60713 52.1444C6.80326 52.1444 8.00001 51.6891 8.91076 50.7791C9.79363 49.897 10.2799 48.7241 10.2799 47.4766C10.2799 46.5974 10.0374 45.7556 9.58551 45.0261L11.7844 41.9431H16.4356C17.8895 44.2128 19.8136 46.1176 22.0498 47.5462V52.1946L18.9591 54.3936C17.1588 53.2866 14.7639 53.5106 13.2073 55.066C12.3244 55.9481 11.8381 57.121 11.8381 58.3685C11.8381 59.616 12.3244 60.7889 13.206 61.6699C14.087 62.5526 15.2596 63.0387 16.5078 63.0387C17.7553 63.0387 18.9284 62.553 19.811 61.6711C20.6939 60.789 21.1801 59.6161 21.1801 58.3686C21.1801 57.6176 21.0039 56.8936 20.671 56.2439L24.0244 53.8579C24.354 53.6234 24.5496 53.2439 24.5496 52.8394V48.8859C26.4814 49.7374 28.5736 50.2643 30.748 50.4111V54.8311C28.7768 55.3786 27.3261 57.1885 27.3261 59.3306C27.3261 61.9053 29.422 63.9999 31.998 63.9999C34.574 63.9999 36.6699 61.9053 36.6699 59.3306C36.6699 57.1885 35.2193 55.3786 33.248 54.8311V50.4109C35.4414 50.2636 37.5309 49.7322 39.4499 48.8834V52.8394C39.4499 53.2435 39.6453 53.6226 39.9743 53.8573L43.3275 56.2479C42.435 58 42.7206 60.2039 44.1849 61.6711C45.0958 62.5814 46.2919 63.0363 47.4886 63.0363C48.6849 63.0363 49.8816 62.5811 50.7924 61.6711C51.676 60.7881 52.1623 59.6143 52.1614 58.366C52.1605 57.1194 51.674 55.9484 50.7924 55.0696C49.233 53.5116 46.8371 53.2874 45.0368 54.3961L41.9499 52.1954V47.5396C44.1949 46.0991 46.1089 44.1865 47.5505 41.9432H52.2118L54.4124 45.0288C53.3066 46.8276 53.5299 49.2206 55.0855 50.7793C55.9964 51.6895 57.1925 52.1445 58.3893 52.1445C59.5854 52.1445 60.7821 51.6893 61.6929 50.7793C62.5758 49.8971 63.062 48.7243 63.062 47.4767C63.062 46.2292 62.5758 45.0564 61.6916 44.1731C60.225 42.7119 58.0186 42.4282 56.2641 43.3201ZM56.8521 14.9891C57.6995 14.1426 59.0781 14.1425 59.9265 14.9904C60.3355 15.398 60.5611 15.9409 60.5615 16.5187C60.5619 17.0982 60.3359 17.6435 59.9253 18.0537C59.0785 18.8999 57.7004 18.9004 56.8529 18.0545C56.0083 17.2078 56.0079 15.8328 56.8521 14.9891ZM45.9518 4.09713C46.7991 3.25063 48.1778 3.2505 49.0261 4.09825C49.4353 4.506 49.6608 5.04875 49.6611 5.62663C49.6615 6.20625 49.4356 6.75137 49.025 7.16162C48.1815 8.00437 46.8118 8.00813 45.9638 7.1735C45.9559 7.1655 45.948 7.1575 45.9401 7.14975C45.1079 6.30212 45.1118 4.93663 45.9518 4.09713ZM18.0568 7.1485C18.0483 7.15662 18.0399 7.165 18.0318 7.1735C17.6226 7.57613 17.082 7.79775 16.5075 7.79775C15.928 7.79775 15.3839 7.57225 14.974 7.16162C14.5634 6.75137 14.3374 6.20613 14.3378 5.62663C14.3381 5.04875 14.5638 4.506 14.9753 4.09587C15.3839 3.6865 15.928 3.461 16.5075 3.461C17.0876 3.461 17.6331 3.68687 18.0449 4.09825C18.4539 4.50588 18.6795 5.04875 18.6799 5.62663C18.6801 6.20013 18.4591 6.73975 18.0568 7.1485ZM7.14326 18.0536C6.29588 18.9002 4.91738 18.9001 4.07126 18.0548C3.22613 17.2081 3.22563 15.8329 4.07013 14.989C4.49376 14.5658 5.04976 14.3541 5.60626 14.3541C6.16301 14.3541 6.72013 14.5661 7.14451 14.9901C7.55351 15.3977 7.77913 15.9406 7.77951 16.5185C7.77976 17.0981 7.55388 17.6432 7.14326 18.0536ZM29.8258 4.66925C29.8258 3.47312 30.8 2.5 31.9976 2.5C33.1953 2.5 34.1695 3.47312 34.1695 4.66925C34.1695 5.86538 33.1953 6.8385 31.9976 6.8385C30.8 6.8385 29.8258 5.86538 29.8258 4.66925ZM7.14326 49.0109C6.29588 49.8575 4.91738 49.8575 4.07126 49.012C3.22626 48.1655 3.22626 46.7881 4.06888 45.9439C4.49288 45.5214 5.04976 45.3101 5.60676 45.3101C6.16363 45.3101 6.72051 45.5214 7.14451 45.9439C7.55401 46.3536 7.77951 46.898 7.77951 47.4767C7.77938 48.0561 7.55351 48.601 7.14326 49.0109ZM18.0436 59.9029C17.6331 60.3131 17.0876 60.539 16.5075 60.539C15.928 60.539 15.3839 60.3135 14.974 59.9029C14.5638 59.4929 14.3378 58.9481 14.3378 58.3689C14.3378 57.7896 14.5638 57.2447 14.974 56.8349C15.3964 56.4129 15.9516 56.2019 16.5075 56.2019C17.0586 56.2019 17.61 56.4094 18.0328 56.8242C18.0408 56.8324 18.0488 56.8404 18.0569 56.8484C18.4588 57.2567 18.6798 57.796 18.6798 58.369C18.6798 58.948 18.4539 59.4929 18.0436 59.9029ZM34.1695 59.3307C34.1695 60.5269 33.1953 61.5 31.9976 61.5C30.8 61.5 29.8258 60.5269 29.8258 59.3307C29.8258 58.1346 30.8 57.1615 31.9976 57.1615C33.1953 57.1615 34.1695 58.1346 34.1695 59.3307ZM45.9389 56.8512C45.9471 56.8433 45.9554 56.835 45.9635 56.8266C46.8116 55.9916 48.1816 55.9956 49.0261 56.8394C49.4353 57.2471 49.6608 57.7899 49.6611 58.3677C49.6615 58.9474 49.4356 59.4925 49.025 59.9027C48.1776 60.7494 46.7989 60.7494 45.953 59.9039C45.1123 59.0616 45.1074 57.6961 45.9389 56.8512ZM59.9253 49.0109C59.0779 49.8575 57.6993 49.8575 56.8534 49.012C56.0089 48.1659 56.0084 46.7896 56.8519 45.943C57.7 45.0989 59.0788 45.0993 59.9253 45.9429C60.3355 46.3527 60.5615 46.8976 60.5615 47.4769C60.5615 48.0561 60.3356 48.601 59.9253 49.0109Z" fill="#162454"/>
<path d="M27.3824 38.813H25.3345C24.6442 38.813 24.0845 39.3726 24.0845 40.063C24.0845 40.7534 24.6442 41.313 25.3345 41.313H27.5419V42.4866C27.5419 43.177 28.1016 43.7366 28.7919 43.7366C29.4821 43.7366 30.0419 43.177 30.0419 42.4866V41.313H33.3785V42.4866C33.3785 43.177 33.9382 43.7366 34.6285 43.7366C35.3187 43.7366 35.8785 43.177 35.8785 42.4866V41.1625C38.1914 40.5996 39.9139 38.5131 39.9139 36.0309C39.9139 34.416 39.1842 32.9688 38.0379 31.9991C39.1842 31.0301 39.9139 29.5839 39.9139 27.97C39.9139 25.4878 38.1914 23.4012 35.8785 22.8384V21.5107C35.8785 20.8204 35.3187 20.2607 34.6285 20.2607C33.9382 20.2607 33.3785 20.8204 33.3785 21.5107V22.6879H30.0419V21.5107C30.0419 20.8204 29.4821 20.2607 28.7919 20.2607C28.1016 20.2607 27.5419 20.8204 27.5419 21.5107V22.6879H25.3345C24.6442 22.6879 24.0845 23.2475 24.0845 23.9379C24.0845 24.6282 24.6442 25.1879 25.3345 25.1879H27.3824V31.9988V38.813ZM29.8824 25.1877H34.6286C36.1645 25.1877 37.414 26.4358 37.414 27.9699C37.414 29.502 36.1645 30.7485 34.6286 30.7485H29.8824V25.1877ZM29.8824 33.2486H34.6286C36.1645 33.2486 37.414 34.4968 37.414 36.0309C37.414 37.565 36.1645 38.813 34.6286 38.813H29.8824V33.2486Z" fill="#162454"/>
<path d="M16.0322 31.9946C16.0322 31.3042 15.4725 30.7446 14.7822 30.7446C14.092 30.7446 13.5322 31.3042 13.5322 31.9946V31.9981C13.5322 32.6885 14.092 33.2463 14.7822 33.2463C15.4725 33.2463 16.0322 32.6849 16.0322 31.9946Z" fill="#162454"/>
</g>
<defs>
<clipPath id="clip0">
<rect width="64" height="64" fill="white"/>
</clipPath>
</defs>
</svg>
