<svg width="64" height="64" viewBox="0 0 64 64" fill="none" xmlns="http://www.w3.org/2000/svg">
<path d="M24.5 32C24.5 32.6904 23.9404 33.25 23.25 33.25C22.5596 33.25 22 32.6904 22 32C22 31.3096 22.5596 30.75 23.25 30.75C23.9404 30.75 24.5 31.3096 24.5 32Z" fill="#162454"/>
<path d="M12 29.5V60.25C12 62.3179 13.6821 64 15.75 64H48.25C50.3179 64 52 62.3179 52 60.25V29.5C52 27.4321 50.3179 25.75 48.25 25.75V16.25C48.25 7.271 40.9844 0 32 0C23.0396 0 15.75 7.28955 15.75 16.25V25.75C13.6821 25.75 12 27.4321 12 29.5ZM31.9111 44.5C31.2222 44.5 30.6611 43.9395 30.6611 43.25C30.6611 42.5605 31.2222 42 31.9111 42C32.6006 42 33.1611 42.5605 33.1611 43.25C33.1611 43.9395 32.6006 44.5 31.9111 44.5ZM18.25 16.25C18.25 8.66846 24.4185 2.5 32 2.5C39.5972 2.5 45.75 8.64795 45.75 16.25V25.75H42V16.25C42 10.7358 37.5142 6.25 32 6.25C26.4858 6.25 22 10.7358 22 16.25V25.75H18.25V16.25ZM24.5 25.75V16.25C24.5 12.1143 27.8643 8.75 32 8.75C36.1357 8.75 39.5 12.1143 39.5 16.25V25.75H24.5ZM14.5 29.5C14.5 28.8105 15.0605 28.25 15.75 28.25H48.25C48.9395 28.25 49.5 28.8105 49.5 29.5V60.25C49.5 60.9395 48.9395 61.5 48.25 61.5H39.375V56.2681L44.0088 51.6338C44.2432 51.3994 44.375 51.0815 44.375 50.75V46.7852C45.8301 46.269 46.875 44.8799 46.875 43.25C46.875 41.1826 45.1929 39.5 43.125 39.5C41.0571 39.5 39.375 41.1826 39.375 43.25C39.375 44.8794 40.4199 46.269 41.875 46.7852V50.2324L37.2412 54.8662C37.0068 55.1006 36.875 55.4185 36.875 55.75V61.5H33.25V46.752C34.6582 46.2119 35.6611 44.8462 35.6611 43.25C35.6611 41.1821 33.979 39.5 31.9111 39.5C29.8433 39.5 28.1611 41.1821 28.1611 43.25C28.1611 44.9126 29.249 46.3247 30.75 46.8149V61.5H27V55.75C27 55.4185 26.8682 55.1006 26.6338 54.8662L22 50.2319V46.7852C23.4551 46.269 24.5 44.8794 24.5 43.25C24.5 41.1821 22.8179 39.5 20.75 39.5C18.6821 39.5 17 41.1821 17 43.25C17 44.8794 18.0449 46.269 19.5 46.7852V50.75C19.5 51.0815 19.6318 51.3994 19.8662 51.6338L24.5 56.2681V61.5H15.75C15.0605 61.5 14.5 60.9395 14.5 60.25V29.5ZM43.125 44.5C42.4355 44.5 41.875 43.9395 41.875 43.25C41.875 42.5605 42.4355 42 43.125 42C43.8145 42 44.375 42.5605 44.375 43.25C44.375 43.9395 43.8145 44.5 43.125 44.5ZM20.75 44.5C20.0605 44.5 19.5 43.9395 19.5 43.25C19.5 42.5605 20.0605 42 20.75 42C21.4395 42 22 42.5605 22 43.25C22 43.9395 21.4395 44.5 20.75 44.5Z" fill="#162454"/>
<path d="M28.25 33.25H40.75C41.4404 33.25 42 32.6904 42 32C42 31.3096 41.4404 30.75 40.75 30.75H28.25C27.5596 30.75 27 31.3096 27 32C27 32.6904 27.5596 33.25 28.25 33.25Z" fill="#162454"/>
</svg>
