<svg width="62" height="62" viewBox="0 0 62 62" fill="none" xmlns="http://www.w3.org/2000/svg">
<path d="M57.1547 29.4852C54.8796 29.4852 52.9669 31.0618 52.4487 33.1797H39.0892C40.1624 32.0917 41.165 30.8488 41.739 29.5469H48.1699C48.8386 29.5469 49.3808 29.0046 49.3808 28.3359V24.3666C51.4685 23.8275 53.0152 21.928 53.0152 19.6741C53.0152 17.0023 50.8417 14.8284 48.1699 14.8284C45.4981 14.8284 43.3246 17.0022 43.3246 19.6741C43.3246 21.928 44.8712 23.8275 46.9589 24.3666V27.125H42.2321C42.1298 24.1139 40.2839 21.9751 37.458 21.463V12.1094H42.3828C43.0515 12.1094 43.5938 11.5671 43.5938 10.8984V6.05675H52.4574C52.9966 8.14452 54.8959 9.6915 57.1496 9.6915C59.8213 9.6915 61.9949 7.51774 61.9949 4.84581C61.9949 2.17375 59.8214 0 57.1496 0C54.8958 0 52.9966 1.54685 52.4574 3.63487H42.3828C41.7141 3.63487 41.1719 4.17701 41.1719 4.84581V9.6875H37.4579V5.28816C37.4579 4.61961 36.9154 4.07723 36.247 4.07723C35.5796 4.07723 35.0361 4.61961 35.0361 5.28816V21.4302C33.9714 21.6042 33.0757 22.0293 32.332 22.5657V13.133C32.332 12.4643 31.7898 11.922 31.1211 11.922H26.5724C26.0335 9.83427 24.1342 8.28729 21.8804 8.28729C19.2087 8.28729 17.0351 10.461 17.0351 13.133C17.0351 15.8049 19.2086 17.9788 21.8804 17.9788C24.1342 17.9788 26.0335 16.4319 26.5726 14.3439H29.9102V22.9474C28.8662 22.0511 27.4681 21.3445 25.653 21.3445C23.4956 21.3445 21.7552 22.1856 20.6872 23.6134H17.4778V19.6173C17.4778 18.9485 16.9357 18.4064 16.2669 18.4064H9.56398C9.06568 16.2608 7.13993 14.6568 4.8452 14.6568C2.17351 14.6568 0 16.8306 0 19.5026C0 22.1744 2.17351 24.3483 4.84532 24.3483C7.05747 24.3483 8.92667 22.8575 9.50465 20.8284H15.0559V24.8245C15.0559 25.4931 15.5982 26.0354 16.2669 26.0354H19.6449C19.5634 26.4649 19.5203 26.9168 19.5203 27.3897C19.5203 28.0607 19.6789 28.7299 19.9487 29.3856H16.2671C15.5983 29.3856 15.0562 29.9277 15.0562 30.5965V33.4219H9.63458C9.27845 31.0987 7.26635 29.3138 4.84532 29.3138C2.17351 29.3138 0 31.4875 0 34.1595C0 36.8315 2.17351 39.0053 4.84532 39.0053C6.92511 39.0053 8.7024 37.6879 9.3884 35.8439H16.2671C16.9358 35.8439 17.4781 35.3016 17.4781 34.6329V31.8075H21.4382C22.1976 32.7537 23.0894 33.626 23.9367 34.3786V39.8H18.1242C17.8045 39.8 17.4921 39.9284 17.2681 40.1548C17.0416 40.38 16.9133 40.6914 16.9133 41.0109V44.4815C16.9133 45.1499 17.4557 45.6924 18.1242 45.6924C18.7915 45.6924 19.3352 45.1499 19.3352 44.4815V42.2219H25.1477C25.4661 42.2219 25.7786 42.0923 26.0038 41.8671C26.2289 41.6418 26.3574 41.3294 26.3574 41.0109V36.4084C26.9566 36.9562 27.9869 38.0027 29.7489 39.9956V46.4196H26.0352C25.3664 46.4196 24.8242 46.9619 24.8242 47.6305V57.3584C24.8242 58.027 25.3664 58.5693 26.0352 58.5693H31.664C32.2708 60.5531 34.1184 62 36.2981 62C38.9698 62 41.1434 59.8262 41.1434 57.1542C41.1434 54.4824 38.9699 52.3085 36.2981 52.3085C33.9715 52.3085 32.0235 53.9571 31.5587 56.1472H27.2461V48.8412H30.9597C31.6285 48.8412 32.1706 48.299 32.1706 47.6303V39.8128C34.3025 37.4105 35.3209 36.4458 35.8012 36.0614C35.9768 35.9209 36.1695 35.7665 36.3731 35.6016H40.5664V44.3203C40.5664 44.9875 41.1101 45.5312 41.7773 45.5312C42.4446 45.5312 42.9883 44.9875 42.9883 44.3203V35.6017H52.4796C53.0393 37.6591 54.9227 39.1767 57.1547 39.1767C59.8265 39.1767 62 37.003 62 34.331C62 31.6591 59.8265 29.4852 57.1547 29.4852ZM45.7463 19.6742C45.7463 18.3377 46.8335 17.2504 48.1698 17.2504C49.506 17.2504 50.5932 18.3377 50.5932 19.6742C50.5932 21.0107 49.506 22.0982 48.1698 22.0982C46.8335 22.098 45.7463 21.0107 45.7463 19.6742ZM57.1496 2.42188C58.4859 2.42188 59.573 3.50918 59.573 4.84581C59.573 6.18244 58.4859 7.26962 57.1496 7.26962C55.8133 7.26962 54.7261 6.18232 54.7261 4.84581C54.7261 3.5093 55.8133 2.42188 57.1496 2.42188ZM21.8804 15.5569C20.5442 15.5569 19.457 14.4696 19.457 13.133C19.457 11.7963 20.5442 10.7092 21.8804 10.7092C23.2167 10.7092 24.3039 11.7965 24.3039 13.133C24.3039 14.4695 23.2168 15.5569 21.8804 15.5569ZM4.84532 21.9263C3.50905 21.9263 2.42188 20.839 2.42188 19.5025C2.42188 18.166 3.50905 17.0786 4.84532 17.0786C6.18159 17.0786 7.26877 18.166 7.26877 19.5025C7.26865 20.8391 6.18159 21.9263 4.84532 21.9263ZM4.84532 36.5833C3.50905 36.5833 2.42188 35.496 2.42188 34.1593C2.42188 32.8228 3.50905 31.7355 4.84532 31.7355C6.18159 31.7355 7.26877 32.8228 7.26877 34.1593C7.26865 35.496 6.18159 36.5833 4.84532 36.5833ZM36.2981 54.7305C37.6344 54.7305 38.7215 55.8177 38.7215 57.1543C38.7215 58.4909 37.6344 59.5781 36.2981 59.5781C34.9618 59.5781 33.8746 58.4908 33.8746 57.1542C33.8746 55.8176 34.9618 54.7305 36.2981 54.7305ZM34.2882 34.1704C33.5685 34.7465 32.4238 35.9061 30.8788 37.6236C29.333 35.9054 28.1883 34.7457 27.4694 34.1704C25.9578 32.9606 21.9421 29.7474 21.9421 27.3896C21.9421 25.1208 23.3293 23.7662 25.653 23.7662C27.7796 23.7662 29.0913 25.3443 29.8172 26.6681C30.0298 27.0559 30.4367 27.2968 30.8789 27.2968C31.3209 27.2968 31.728 27.056 31.9407 26.6684C32.6669 25.3444 33.9789 23.7662 36.1047 23.7662C38.4285 23.7662 39.8159 25.1208 39.8159 27.3896C39.8159 29.7478 35.8002 32.9608 34.2882 34.1704ZM57.1547 36.755C55.8184 36.755 54.7312 35.6677 54.7312 34.3312C54.7313 32.9947 55.8184 31.9072 57.1547 31.9072C58.4909 31.9072 59.5781 32.9947 59.5781 34.3312C59.5781 35.6677 58.4909 36.755 57.1547 36.755Z" fill="#162454"/>
</svg>
