<svg width="344" height="347" viewBox="0 0 344 347" fill="none" xmlns="http://www.w3.org/2000/svg">
<g opacity="0.3">
<path d="M-66.037 34.5325C-68.3703 29.2224 -73.6896 25.5013 -79.8842 25.5013C-88.2181 25.5013 -95.0001 32.2502 -95.0001 40.5375C-95.0001 48.8296 -88.2181 55.5768 -79.8842 55.5768C-72.6487 55.5768 -66.6163 50.4978 -65.125 43.7458L-23.0577 7.56555L110.995 7.56556L238.602 134.446C239.32 135.158 240.285 135.55 241.288 135.55L314.285 135.55C315.99 142.011 321.847 146.808 328.871 146.808C337.213 146.808 343.992 140.06 343.992 131.769C343.992 123.482 337.205 116.733 328.871 116.733C321.847 116.733 315.99 121.533 314.285 127.986L242.862 127.986L115.258 1.11267C114.545 0.403591 113.579 -1.00717e-05 112.57 -1.01158e-05L-24.4823 -1.61065e-05C-25.3879 -1.61461e-05 -26.2729 0.326032 -26.9637 0.92273L-66.037 34.5325ZM-72.3669 40.5391C-72.3669 44.6606 -75.7396 48.0144 -79.8859 48.0144C-84.0305 48.0144 -87.3953 44.6606 -87.3953 40.5391C-87.3953 36.4176 -84.0305 33.0669 -79.8859 33.0669C-75.7396 33.0669 -72.3669 36.4239 -72.3669 40.5391ZM328.871 124.298C333.016 124.298 336.385 127.649 336.385 131.771C336.385 135.892 333.017 139.246 328.871 139.246C324.723 139.246 321.354 135.892 321.354 131.771C321.346 127.648 324.723 124.298 328.871 124.298Z" fill="#0EE9C4"/>
<path d="M243.981 193.096L115.258 65.1083C113.771 63.6348 111.366 63.6348 109.88 65.1083C109.136 65.8506 108.773 66.8177 108.773 67.7784C108.773 68.7455 109.144 69.7141 109.88 70.4565L237.484 197.328L237.484 286.14C230.996 287.83 226.164 293.668 226.164 300.64C226.164 308.929 232.949 315.673 241.288 315.673C249.629 315.673 256.408 308.929 256.408 300.64C256.408 293.668 251.579 287.83 245.092 286.14L245.092 195.769C245.09 194.766 244.686 193.804 243.981 193.096ZM248.8 300.648C248.8 304.769 245.432 308.124 241.286 308.124C237.141 308.124 233.769 304.771 233.769 300.648C233.769 296.526 237.141 293.172 241.286 293.172C245.432 293.172 248.8 296.526 248.8 300.648Z" fill="#0EE9C4"/>
<path d="M209.107 346.506C211.205 346.506 212.911 344.808 212.911 342.724L212.911 201.694C212.911 200.689 212.507 199.728 211.789 199.02L103.081 90.9246C102.212 83.4604 95.8854 77.6279 88.1357 77.6279C79.7939 77.6279 73.0199 84.372 73.0199 92.6641C73.0199 100.956 79.8019 107.7 88.1357 107.7C93.8402 107.7 98.7504 104.509 101.321 99.8735L205.295 203.253L205.295 342.708C205.303 344.806 207.005 346.506 209.107 346.506ZM88.1437 100.143C83.9991 100.143 80.6248 96.7919 80.6248 92.6704C80.6248 88.5489 83.9975 85.1982 88.1437 85.1982C92.2883 85.1982 95.661 88.5474 95.661 92.6704C95.661 96.7935 92.2883 100.143 88.1437 100.143Z" fill="#0EE9C4"/>
<path d="M181.874 300.684C175.377 302.374 170.553 308.212 170.553 315.184C170.553 323.472 177.34 330.224 185.677 330.224C194.019 330.224 200.797 323.472 200.797 315.184C200.797 308.212 195.968 302.374 189.481 300.684L189.481 210.128C189.481 209.139 189.076 208.18 188.37 207.461L122.277 141.353C121.957 133.335 115.353 126.897 107.212 126.897C98.87 126.897 92.0943 133.645 92.0943 141.937C92.0943 150.224 98.8779 156.973 107.212 156.973C112.638 156.973 117.362 154.1 120.033 149.825L181.881 211.679L181.881 300.682L181.874 300.682L181.874 300.684ZM193.191 315.185C193.191 319.307 189.823 322.662 185.677 322.662C181.532 322.662 178.159 319.308 178.159 315.185C178.159 311.064 181.532 307.71 185.677 307.71C189.823 307.71 193.191 311.064 193.191 315.185ZM99.6865 141.938C99.6865 137.817 103.059 134.463 107.205 134.463C111.353 134.463 114.723 137.817 114.723 141.938C114.723 146.06 111.353 149.411 107.205 149.411C103.067 149.409 99.6865 146.06 99.6865 141.938Z" fill="#0EE9C4"/>
</g>
</svg>
