<svg width="449" height="448" viewBox="0 0 449 448" fill="none" xmlns="http://www.w3.org/2000/svg">
<g clip-path="url(#clip0)">
<path d="M367.353 29.565C372.802 27.1838 376.621 21.7555 376.621 15.4338C376.621 6.92914 369.695 0.00805953 361.19 0.00806028C352.681 0.00806102 345.756 6.92914 345.756 15.4338C345.756 22.8178 350.969 28.9738 357.898 30.4957L395.027 73.4254L395.027 210.227L264.819 340.45C264.088 341.183 263.685 342.167 263.685 343.19L263.685 417.685C257.055 419.424 252.132 425.401 252.132 432.569C252.132 441.082 259.058 448 267.566 448C276.07 448 282.996 441.074 282.996 432.569C282.996 425.401 278.07 419.424 271.448 417.684L271.448 344.797L401.649 214.577C402.377 213.849 402.791 212.863 402.791 211.833L402.791 71.9716C402.791 71.0475 402.456 70.1444 401.844 69.4394L367.353 29.565ZM361.189 23.1053C356.959 23.1053 353.517 19.6635 353.517 15.4322C353.517 11.2026 356.959 7.76883 361.189 7.76883C365.418 7.76883 368.857 11.2026 368.857 15.4322C368.857 19.6635 365.412 23.1053 361.189 23.1053ZM275.232 432.569C275.232 436.799 271.794 440.238 267.564 440.238C263.334 440.238 259.893 436.801 259.893 432.569C259.893 428.337 263.334 424.898 267.564 424.898C271.795 424.89 275.232 428.337 275.232 432.569Z" fill="#0EE9C4"/>
<path d="M335.161 29.5259L373.129 73.4252L373.129 210.227L242.916 340.45C242.188 341.182 241.782 342.167 241.782 343.19L241.782 419.799C241.782 421.942 243.521 423.681 245.664 423.681C247.81 423.681 249.546 421.942 249.546 419.799L249.546 344.797L379.759 214.577C380.486 213.849 380.893 212.863 380.893 211.84L380.893 71.9829C380.893 71.044 380.548 70.149 379.946 69.4376L341.031 24.4549C340.261 23.5664 339.186 23.1051 338.098 23.1051C337.195 23.1051 336.298 23.4235 335.559 24.0521C333.933 25.4539 333.763 27.9033 335.161 29.5259Z" fill="#0EE9C4"/>
<path d="M204.63 345.939L335.975 214.577C337.487 213.06 337.487 210.606 335.975 209.089C335.213 208.33 334.221 207.96 333.235 207.96C332.242 207.96 331.248 208.338 330.486 209.089L200.286 339.308L109.145 339.308C107.411 332.688 101.42 327.757 94.2653 327.757C85.759 327.757 78.838 334.681 78.838 343.19C78.838 351.703 85.759 358.621 94.2653 358.621C101.42 358.621 107.411 353.693 109.145 347.073L201.886 347.072C202.916 347.071 203.904 346.658 204.63 345.939ZM94.2572 350.857C90.0276 350.857 86.5842 347.42 86.5842 343.189C86.5842 338.959 90.026 335.517 94.2572 335.517C98.4868 335.517 101.929 338.959 101.929 343.189C101.929 347.42 98.4868 350.857 94.2572 350.857Z" fill="#0EE9C4"/>
<path d="M47.1958 323.723C47.1958 325.864 48.9386 327.605 51.0778 327.605L195.807 327.605C196.838 327.605 197.824 327.193 198.55 326.46L309.481 215.524C317.142 214.637 323.127 208.18 323.127 200.272C323.127 191.759 316.206 184.846 307.696 184.846C299.187 184.846 292.266 191.767 292.266 200.272C292.266 206.093 295.54 211.104 300.298 213.727L194.207 319.833L51.094 319.833C48.9402 319.841 47.1958 321.578 47.1958 323.723ZM300.022 200.28C300.022 196.05 303.46 192.607 307.69 192.607C311.919 192.607 315.358 196.049 315.358 200.28C315.358 204.509 311.921 207.951 307.69 207.951C303.459 207.951 300.022 204.509 300.022 200.28Z" fill="#0EE9C4"/>
<path d="M94.22 295.932C92.4853 289.302 86.495 284.378 79.3401 284.378C70.8338 284.378 63.9046 291.304 63.9046 299.812C63.9046 308.325 70.8338 315.243 79.3401 315.243C86.495 315.243 92.4853 310.315 94.22 303.694L187.151 303.694C188.166 303.694 189.151 303.282 189.888 302.561L257.73 235.112C265.959 234.786 272.565 228.047 272.565 219.739C272.565 211.226 265.641 204.311 257.131 204.311C248.626 204.311 241.701 211.234 241.701 219.739C241.701 225.276 244.649 230.097 249.036 232.822L185.559 295.938L94.2216 295.938L94.2216 295.932L94.22 295.932ZM79.3385 307.481C75.1089 307.481 71.6654 304.044 71.6654 299.812C71.6654 295.583 75.1072 292.141 79.3385 292.141C83.5681 292.141 87.0099 295.583 87.0099 299.812C87.0099 304.044 83.5681 307.481 79.3385 307.481ZM257.129 212.059C261.359 212.059 264.801 215.501 264.801 219.732C264.801 223.965 261.359 227.404 257.129 227.404C252.9 227.404 249.461 223.965 249.461 219.732C249.463 215.509 252.9 212.059 257.129 212.059Z" fill="#0EE9C4"/>
<path d="M307.688 -0.000209138C299.179 -0.000208394 292.258 6.92899 292.258 15.4337C292.258 23.9465 299.179 30.8692 307.688 30.8692C309.723 30.8692 311.664 30.4436 313.441 29.7241L351.235 73.4188L351.235 210.227L221.027 340.45C220.299 341.183 219.893 342.167 219.893 343.19L219.893 419.799C219.893 421.942 221.633 423.681 223.775 423.681C225.917 423.681 227.657 421.942 227.657 419.799L227.657 344.797L357.857 214.577C358.588 213.849 358.991 212.863 358.991 211.84L358.991 71.9829C358.991 71.0441 358.656 70.1491 358.044 69.4377L319.652 25.0608C321.787 22.4067 323.112 19.0948 323.112 15.4321C323.119 6.92737 316.198 -0.000209882 307.688 -0.000209138ZM307.688 23.1052C303.458 23.1052 300.02 19.6633 300.02 15.4321C300.02 11.2025 303.458 7.76874 307.688 7.76874C311.918 7.76874 315.356 11.2025 315.356 15.4321C315.356 19.6633 311.919 23.1052 307.688 23.1052Z" fill="#0EE9C4"/>
</g>
<defs>
<clipPath id="clip0">
<rect width="448" height="448" fill="white" transform="translate(448.992 448) rotate(180)"/>
</clipPath>
</defs>
</svg>
