<svg width="366" height="351" viewBox="0 0 366 351" fill="none" xmlns="http://www.w3.org/2000/svg">
<g opacity="0.3">
<path d="M30.3089 34.9459C27.9477 29.5722 22.5647 25.8066 16.2959 25.8066C7.86227 25.8066 0.999053 32.6363 0.999052 41.0228C0.999052 49.4141 7.86227 56.2422 16.2959 56.2422C23.6181 56.2422 29.7227 51.1023 31.2319 44.2694L73.8027 7.65612L209.461 7.65613L338.595 136.055C339.322 136.776 340.298 137.173 341.312 137.173L415.184 137.173C416.909 143.711 422.836 148.566 429.944 148.566C438.386 148.566 445.246 141.736 445.246 133.347C445.246 124.96 438.378 118.13 429.944 118.13C422.836 118.13 416.909 122.988 415.184 129.518L342.905 129.518L213.774 1.12599C213.052 0.408423 212.075 -1.01922e-05 211.054 -1.02369e-05L72.3611 -1.62993e-05C71.4446 -1.63394e-05 70.5491 0.329935 69.85 0.933776L30.3089 34.9459ZM23.9032 41.0244C23.9032 45.1952 20.4901 48.5892 16.2942 48.5892C12.1 48.5892 8.69494 45.1952 8.69494 41.0244C8.69494 36.8535 12.1 33.4627 16.2942 33.4627C20.4901 33.4627 23.9032 36.86 23.9032 41.0244ZM429.944 125.786C434.139 125.786 437.549 129.177 437.549 133.348C437.549 137.519 434.14 140.913 429.944 140.913C425.747 140.913 422.337 137.519 422.337 133.348C422.329 129.176 425.747 125.786 429.944 125.786Z" fill="#0EE9C4"/>
<path d="M30.2704 66.6901L73.8028 29.2504L209.461 29.2504L338.595 157.654C339.322 158.372 340.298 158.772 341.313 158.772L417.281 158.772C419.406 158.772 421.131 157.057 421.131 154.944C421.131 152.828 419.406 151.116 417.281 151.116L342.906 151.116L213.774 22.7122C213.053 21.9947 212.075 21.5942 211.06 21.5942L72.3725 21.5942C71.4415 21.5942 70.554 21.9338 69.8485 22.528L25.2418 60.9016C24.3607 61.6608 23.9033 62.7211 23.9033 63.7943C23.9033 64.6848 24.219 65.569 24.8423 66.2977C26.2324 67.901 28.6613 68.0692 30.2704 66.6901Z" fill="#0EE9C4"/>
<path d="M344.038 195.408L213.774 65.8877C212.27 64.3965 209.836 64.3965 208.332 65.8877C207.579 66.6389 207.212 67.6175 207.212 68.5897C207.212 69.5684 207.587 70.5486 208.332 71.2998L337.463 199.691L337.463 289.565C330.898 291.276 326.008 297.183 326.008 304.239C326.008 312.627 332.874 319.452 341.313 319.452C349.754 319.452 356.614 312.627 356.614 304.239C356.614 297.183 351.727 291.276 345.162 289.565L345.162 198.113C345.161 197.098 344.751 196.124 344.038 195.408ZM348.915 304.247C348.915 308.417 345.507 311.813 341.311 311.813C337.117 311.813 333.704 308.419 333.704 304.247C333.704 300.076 337.117 296.682 341.311 296.682C345.507 296.682 348.915 300.076 348.915 304.247Z" fill="#0EE9C4"/>
<path d="M308.747 350.654C310.87 350.654 312.597 348.936 312.597 346.826L312.597 204.108C312.597 203.091 312.188 202.119 311.461 201.403L201.452 92.013C200.573 84.4594 194.17 78.5571 186.328 78.5571C177.886 78.5571 171.031 85.382 171.031 93.7733C171.031 102.165 177.894 108.989 186.328 108.989C192.1 108.989 197.069 105.76 199.671 101.069L304.889 205.686L304.889 346.81C304.898 348.934 306.619 350.654 308.747 350.654ZM186.336 101.341C182.141 101.341 178.727 97.9505 178.727 93.7797C178.727 89.6089 182.14 86.2181 186.336 86.2181C190.53 86.2181 193.943 89.6073 193.943 93.7797C193.943 97.9521 190.53 101.341 186.336 101.341Z" fill="#0EE9C4"/>
<path d="M281.188 304.283C274.613 305.994 269.731 311.901 269.731 318.957C269.731 327.345 276.599 334.178 285.036 334.178C293.478 334.178 300.338 327.345 300.338 318.957C300.338 311.901 295.451 305.994 288.886 304.283L288.886 212.644C288.886 211.643 288.477 210.672 287.762 209.945L220.877 143.045C220.554 134.931 213.871 128.417 205.632 128.416C197.19 128.416 190.334 135.245 190.334 143.636C190.334 152.022 197.198 158.852 205.632 158.852C211.123 158.852 215.903 155.945 218.606 151.619L281.195 214.213L281.195 304.282L281.188 304.282L281.188 304.283ZM292.64 318.958C292.64 323.129 289.232 326.525 285.036 326.525C280.842 326.525 277.429 323.131 277.429 318.958C277.429 314.787 280.842 311.393 285.036 311.393C289.232 311.393 292.64 314.787 292.64 318.958ZM198.017 143.637C198.017 139.467 201.43 136.073 205.626 136.073C209.823 136.073 213.233 139.467 213.233 143.637C213.233 147.808 209.823 151.199 205.626 151.199C201.438 151.198 198.017 147.808 198.017 143.637Z" fill="#0EE9C4"/>
<path d="M0.99127 93.7812C0.991269 102.172 7.86255 108.997 16.2962 108.997C24.7379 108.997 31.6026 102.172 31.6026 93.7812C31.6026 91.7742 31.1806 89.8602 30.467 88.1079L73.7965 50.8395L209.461 50.8395L338.595 179.238C339.322 179.956 340.298 180.356 341.313 180.356L417.281 180.356C419.406 180.356 421.131 178.641 421.131 176.528C421.131 174.416 419.406 172.7 417.281 172.7L342.906 172.7L213.774 44.3094C213.053 43.5886 212.075 43.1914 211.06 43.1914L72.3726 43.1914C71.4417 43.1914 70.5541 43.5213 69.8487 44.1252L25.8428 81.983C23.2109 79.8784 19.9267 78.5714 16.2946 78.5714C7.86093 78.565 0.99127 85.3898 0.99127 93.7812ZM23.9035 93.7812C23.9035 97.952 20.4904 101.343 16.2946 101.343C12.1003 101.343 8.69525 97.952 8.69525 93.7812C8.69525 89.6103 12.1003 86.2195 16.2946 86.2195C20.4904 86.2195 23.9035 89.6087 23.9035 93.7812Z" fill="#0EE9C4"/>
</g>
</svg>
