<svg width="481" height="480" viewBox="0 0 481 480" fill="none" xmlns="http://www.w3.org/2000/svg">
<g opacity="0.1">
<path d="M355.367 223.912H428.844C430.371 227.766 433.194 230.967 436.827 232.964C440.461 234.96 444.676 235.627 448.748 234.85C452.82 234.073 456.494 231.9 459.136 228.706C461.778 225.511 463.224 221.495 463.224 217.35C463.224 213.204 461.778 209.189 459.136 205.994C456.494 202.8 452.82 200.627 448.748 199.85C444.676 199.072 440.461 199.739 436.827 201.736C433.194 203.732 430.371 206.933 428.844 210.787H355.367V178.575H402.729C404.469 178.574 406.138 177.882 407.368 176.652C408.599 175.421 409.291 173.753 409.292 172.012V128.775H428.844C430.371 132.629 433.194 135.83 436.827 137.826C440.461 139.823 444.676 140.49 448.748 139.713C452.82 138.935 456.494 136.762 459.136 133.568C461.778 130.374 463.224 126.358 463.224 122.212C463.224 118.067 461.778 114.051 459.136 110.857C456.494 107.662 452.82 105.489 448.748 104.712C444.676 103.935 440.461 104.602 436.827 106.598C433.194 108.595 430.371 111.796 428.844 115.65H402.729C400.989 115.651 399.32 116.343 398.09 117.573C396.859 118.804 396.168 120.472 396.167 122.212V165.45H355.367V132.187C355.366 130.447 354.674 128.779 353.443 127.548C352.213 126.318 350.544 125.626 348.804 125.625H315.542V84.8249H358.779C360.519 84.8239 362.188 84.1322 363.418 82.9017C364.649 81.6712 365.341 80.0026 365.342 78.2624V52.1474C369.194 50.6205 372.393 47.7982 374.388 44.1666C376.383 40.535 377.049 36.3214 376.272 32.2513C375.494 28.1813 373.322 24.5098 370.129 21.8689C366.937 19.228 362.923 17.7831 358.779 17.7831C354.636 17.7831 350.622 19.228 347.429 21.8689C344.236 24.5098 342.064 28.1813 341.286 32.2513C340.509 36.3214 341.176 40.535 343.171 44.1666C345.166 47.7982 348.365 50.6205 352.217 52.1474V71.6999H308.979C307.239 71.7009 305.57 72.3926 304.34 73.6231C303.109 74.8536 302.418 76.5222 302.417 78.2624V125.625H270.204V52.1512C274.056 50.6243 277.255 47.802 279.25 44.1704C281.245 40.5387 281.911 36.3251 281.134 32.2551C280.357 28.1851 278.185 24.5135 274.992 21.8726C271.799 19.2317 267.785 17.7869 263.642 17.7869C259.498 17.7869 255.484 19.2317 252.291 21.8726C249.098 24.5135 246.926 28.1851 246.149 32.2551C245.372 36.3251 246.038 40.5387 248.033 44.1704C250.028 47.802 253.227 50.6243 257.079 52.1512V125.625H224.904V52.1474C228.758 50.6204 231.959 47.7972 233.956 44.1641C235.952 40.531 236.619 36.3154 235.842 32.2433C235.065 28.1713 232.892 24.4978 229.697 21.8555C226.503 19.2132 222.487 17.7676 218.342 17.7676C214.196 17.7676 210.18 19.2132 206.986 21.8555C203.792 24.4978 201.619 28.1713 200.841 32.2433C200.064 36.3154 200.731 40.531 202.728 44.1641C204.724 47.7972 207.925 50.6204 211.779 52.1474V125.625H179.567V78.2624C179.566 76.5222 178.874 74.8536 177.643 73.6231C176.413 72.3926 174.744 71.7009 173.004 71.6999H129.767V52.1474C133.621 50.6204 136.822 47.7972 138.818 44.1641C140.815 40.531 141.482 36.3154 140.704 32.2433C139.927 28.1713 137.754 24.4978 134.56 21.8555C131.365 19.2132 127.35 17.7676 123.204 17.7676C119.059 17.7676 115.043 19.2132 111.848 21.8555C108.654 24.4978 106.481 28.1713 105.704 32.2433C104.927 36.3154 105.594 40.531 107.59 44.1641C109.587 47.7972 112.788 50.6204 116.642 52.1474V78.2624C116.643 80.0026 117.334 81.6712 118.565 82.9017C119.795 84.1322 121.464 84.8239 123.204 84.8249H166.442V125.625H133.179C131.439 125.626 129.77 126.318 128.54 127.548C127.309 128.779 126.618 130.447 126.617 132.187V165.45H85.8166V122.212C85.8156 120.472 85.1239 118.804 83.8934 117.573C82.6629 116.343 80.9943 115.651 79.2541 115.65H53.1429C51.6159 111.797 48.7932 108.597 45.1608 106.601C41.5284 104.605 37.3138 103.939 33.2428 104.716C29.1718 105.493 25.4992 107.666 22.8576 110.859C20.2161 114.053 18.7708 118.068 18.7708 122.212C18.7708 126.357 20.2161 130.372 22.8576 133.565C25.4992 136.759 29.1718 138.932 33.2428 139.709C37.3138 140.486 41.5284 139.819 45.1608 137.824C48.7932 135.828 51.6159 132.628 53.1429 128.775H72.6916V172.012C72.6926 173.753 73.3843 175.421 74.6148 176.652C75.8453 177.882 77.5139 178.574 79.2541 178.575H126.617V210.787H53.1429C51.616 206.935 48.7937 203.736 45.1621 201.741C41.5304 199.746 37.3168 199.08 33.2468 199.857C29.1768 200.635 25.5052 202.807 22.8643 206C20.2234 209.192 18.7786 213.206 18.7786 217.35C18.7786 221.493 20.2234 225.507 22.8643 228.7C25.5052 231.893 29.1768 234.065 33.2468 234.843C37.3168 235.62 41.5304 234.954 45.1621 232.958C48.7937 230.963 51.616 227.764 53.1429 223.912H126.617V256.087H53.1391C51.6121 252.233 48.7889 249.032 45.1558 247.036C41.5227 245.039 37.3071 244.372 33.235 245.15C29.163 245.927 25.4895 248.1 22.8472 251.294C20.2049 254.489 18.7593 258.504 18.7593 262.65C18.7593 266.795 20.2049 270.811 22.8472 274.006C25.4895 277.2 29.163 279.373 33.235 280.15C37.3071 280.927 41.5227 280.26 45.1558 278.264C48.7889 276.267 51.6121 273.066 53.1391 269.212H126.617V301.425H79.2541C77.5139 301.426 75.8453 302.118 74.6148 303.348C73.3843 304.579 72.6926 306.247 72.6916 307.987V351.225H53.1391C51.6121 347.371 48.7889 344.17 45.1558 342.173C41.5227 340.177 37.3071 339.51 33.235 340.287C29.163 341.064 25.4895 343.237 22.8472 346.432C20.2049 349.626 18.7593 353.642 18.7593 357.787C18.7593 361.933 20.2049 365.949 22.8472 369.143C25.4895 372.337 29.163 374.51 33.235 375.288C37.3071 376.065 41.5227 375.398 45.1558 373.401C48.7889 371.405 51.6121 368.204 53.1391 364.35H79.2541C80.9943 364.349 82.6629 363.657 83.8934 362.427C85.1239 361.196 85.8156 359.528 85.8166 357.787V314.55H126.617V347.812C126.618 349.553 127.309 351.221 128.54 352.452C129.77 353.682 131.439 354.374 133.179 354.375H166.442V395.175H123.204C121.464 395.176 119.795 395.868 118.565 397.098C117.334 398.329 116.643 399.997 116.642 401.737V427.852C112.79 429.379 109.591 432.202 107.596 435.833C105.601 439.465 104.934 443.678 105.711 447.748C106.489 451.818 108.661 455.49 111.854 458.131C115.047 460.772 119.061 462.217 123.204 462.217C127.348 462.217 131.362 460.772 134.554 458.131C137.747 455.49 139.92 451.818 140.697 447.748C141.474 443.678 140.808 439.465 138.813 435.833C136.818 432.202 133.619 429.379 129.767 427.852V408.3H173.004C174.744 408.299 176.413 407.607 177.643 406.377C178.874 405.146 179.566 403.478 179.567 401.737V354.375H211.779V427.849C207.927 429.376 204.728 432.198 202.733 435.829C200.738 439.461 200.072 443.675 200.849 447.745C201.626 451.815 203.798 455.486 206.991 458.127C210.184 460.768 214.198 462.213 218.342 462.213C222.485 462.213 226.499 460.768 229.692 458.127C232.885 455.486 235.057 451.815 235.834 447.745C236.611 443.675 235.945 439.461 233.95 435.829C231.955 432.198 228.756 429.376 224.904 427.849V354.375H257.079V427.852C253.225 429.379 250.024 432.203 248.028 435.836C246.031 439.469 245.364 443.684 246.141 447.757C246.919 451.829 249.092 455.502 252.286 458.144C255.48 460.787 259.496 462.232 263.642 462.232C267.787 462.232 271.803 460.787 274.997 458.144C278.192 455.502 280.365 451.829 281.142 447.757C281.919 443.684 281.252 439.469 279.256 435.836C277.259 432.203 274.058 429.379 270.204 427.852V354.375H302.417V401.737C302.418 403.478 303.109 405.146 304.34 406.377C305.57 407.607 307.239 408.299 308.979 408.3H352.217V427.852C348.364 429.379 345.164 432.202 343.168 435.834C341.172 439.467 340.505 443.681 341.283 447.753C342.06 451.824 344.232 455.496 347.426 458.138C350.62 460.779 354.635 462.224 358.779 462.224C362.924 462.224 366.938 460.779 370.132 458.138C373.326 455.496 375.498 451.824 376.276 447.753C377.053 443.681 376.386 439.467 374.39 435.834C372.395 432.202 369.195 429.379 365.342 427.852V401.737C365.341 399.997 364.649 398.329 363.418 397.098C362.188 395.868 360.519 395.176 358.779 395.175H315.542V354.375H348.804C350.544 354.374 352.213 353.682 353.443 352.452C354.674 351.221 355.366 349.553 355.367 347.812V314.55H396.167V357.787C396.168 359.528 396.859 361.196 398.09 362.427C399.32 363.657 400.989 364.349 402.729 364.35H428.844C430.371 368.202 433.193 371.401 436.825 373.396C440.457 375.391 444.67 376.057 448.74 375.28C452.81 374.503 456.482 372.331 459.123 369.138C461.764 365.945 463.208 361.931 463.208 357.787C463.208 353.644 461.764 349.63 459.123 346.437C456.482 343.244 452.81 341.072 448.74 340.295C444.67 339.518 440.457 340.184 436.825 342.179C433.193 344.174 430.371 347.373 428.844 351.225H409.292V307.987C409.291 306.247 408.599 304.579 407.368 303.348C406.138 302.118 404.469 301.426 402.729 301.425H355.367V269.212H428.84C430.367 273.064 433.19 276.263 436.821 278.258C440.453 280.254 444.666 280.92 448.736 280.143C452.806 279.365 456.478 277.193 459.119 274C461.76 270.807 463.205 266.793 463.205 262.65C463.205 258.506 461.76 254.493 459.119 251.3C456.478 248.107 452.806 245.935 448.736 245.157C444.666 244.38 440.453 245.046 436.821 247.041C433.19 249.036 430.367 252.235 428.84 256.087H355.367V223.912ZM445.367 212.662C446.294 212.662 447.2 212.937 447.971 213.452C448.742 213.967 449.342 214.7 449.697 215.556C450.052 216.413 450.145 217.355 449.964 218.264C449.783 219.174 449.337 220.009 448.681 220.664C448.026 221.32 447.19 221.766 446.281 221.947C445.372 222.128 444.429 222.035 443.573 221.681C442.716 221.326 441.984 220.725 441.469 219.954C440.954 219.183 440.679 218.277 440.679 217.35C440.679 216.106 441.173 214.913 442.052 214.033C442.93 213.152 444.123 212.657 445.367 212.655V212.662ZM445.367 117.529C446.294 117.529 447.2 117.804 447.971 118.319C448.742 118.834 449.342 119.566 449.697 120.422C450.052 121.279 450.145 122.221 449.964 123.131C449.783 124.04 449.337 124.875 448.681 125.531C448.026 126.186 447.19 126.633 446.281 126.814C445.372 126.994 444.429 126.902 443.573 126.547C442.716 126.192 441.984 125.591 441.469 124.82C440.954 124.05 440.679 123.143 440.679 122.216C440.679 120.972 441.173 119.779 442.052 118.899C442.93 118.019 444.123 117.523 445.367 117.521V117.529ZM358.783 30.9374C359.71 30.9374 360.616 31.2123 361.387 31.7274C362.158 32.2425 362.759 32.9746 363.114 33.8311C363.468 34.6876 363.561 35.6301 363.38 36.5394C363.199 37.4487 362.753 38.2839 362.097 38.9395C361.442 39.595 360.607 40.0415 359.697 40.2223C358.788 40.4032 357.846 40.3104 356.989 39.9556C356.133 39.6008 355.4 39 354.885 38.2291C354.37 37.4583 354.095 36.552 354.095 35.6249C354.097 34.3823 354.592 33.1912 355.47 32.3125C356.349 31.4339 357.54 30.9394 358.783 30.9374ZM263.649 30.9374C264.576 30.9374 265.482 31.2123 266.253 31.7274C267.024 32.2425 267.625 32.9746 267.98 33.8311C268.335 34.6876 268.427 35.6301 268.247 36.5394C268.066 37.4487 267.619 38.2839 266.964 38.9395C266.308 39.595 265.473 40.0415 264.564 40.2223C263.654 40.4032 262.712 40.3104 261.855 39.9556C260.999 39.6008 260.267 39 259.752 38.2291C259.237 37.4583 258.962 36.552 258.962 35.6249C258.964 34.3823 259.458 33.1912 260.337 32.3125C261.215 31.4339 262.407 30.9394 263.649 30.9374ZM218.334 30.9374C219.261 30.9374 220.167 31.2123 220.938 31.7274C221.709 32.2425 222.31 32.9746 222.665 33.8311C223.02 34.6876 223.112 35.6301 222.932 36.5394C222.751 37.4487 222.304 38.2839 221.649 38.9395C220.993 39.595 220.158 40.0415 219.249 40.2223C218.339 40.4032 217.397 40.3104 216.54 39.9556C215.684 39.6008 214.952 39 214.437 38.2291C213.922 37.4583 213.647 36.552 213.647 35.6249C213.648 34.382 214.142 33.1903 215.021 32.3114C215.9 31.4326 217.091 30.9384 218.334 30.9374ZM123.2 30.9374C124.127 30.9374 125.034 31.2123 125.805 31.7274C126.575 32.2425 127.176 32.9746 127.531 33.8311C127.886 34.6876 127.979 35.6301 127.798 36.5394C127.617 37.4487 127.17 38.2839 126.515 38.9395C125.859 39.595 125.024 40.0415 124.115 40.2223C123.206 40.4032 122.263 40.3104 121.407 39.9556C120.55 39.6008 119.818 39 119.303 38.2291C118.788 37.4583 118.513 36.552 118.513 35.6249C118.514 34.382 119.008 33.1903 119.887 32.3114C120.766 31.4326 121.957 30.9384 123.2 30.9374ZM36.6166 126.896C35.6895 126.896 34.7832 126.621 34.0124 126.106C33.2415 125.591 32.6407 124.859 32.2859 124.002C31.9311 123.146 31.8383 122.203 32.0192 121.294C32.2001 120.385 32.6465 119.55 33.302 118.894C33.9576 118.239 34.7928 117.792 35.7021 117.611C36.6114 117.43 37.5539 117.523 38.4104 117.878C39.267 118.233 39.9991 118.834 40.5141 119.604C41.0292 120.375 41.3041 121.282 41.3041 122.209C41.3031 123.452 40.8089 124.643 39.9301 125.522C39.0512 126.401 37.8595 126.895 36.6166 126.896ZM36.6166 222.03C35.6895 222.03 34.7832 221.755 34.0124 221.24C33.2415 220.725 32.6407 219.993 32.2859 219.136C31.9311 218.28 31.8383 217.337 32.0192 216.428C32.2001 215.519 32.6465 214.683 33.302 214.028C33.9576 213.372 34.7928 212.926 35.7021 212.745C36.6114 212.564 37.5539 212.657 38.4104 213.012C39.267 213.367 39.9991 213.967 40.5141 214.738C41.0292 215.509 41.3041 216.415 41.3041 217.342C41.3031 218.585 40.8089 219.777 39.9301 220.656C39.0512 221.535 37.8595 222.029 36.6166 222.03ZM36.6166 267.345C35.6895 267.345 34.7832 267.07 34.0124 266.555C33.2415 266.04 32.6407 265.308 32.2859 264.451C31.9311 263.595 31.8383 262.652 32.0192 261.743C32.2001 260.834 32.6465 259.998 33.302 259.343C33.9576 258.687 34.7928 258.241 35.7021 258.06C36.6114 257.879 37.5539 257.972 38.4104 258.327C39.267 258.682 39.9991 259.282 40.5141 260.053C41.0292 260.824 41.3041 261.73 41.3041 262.657C41.3021 263.9 40.8076 265.091 39.929 265.97C39.0503 266.848 37.8592 267.343 36.6166 267.345ZM36.6166 362.479C35.6895 362.479 34.7832 362.204 34.0124 361.689C33.2415 361.174 32.6407 360.441 32.2859 359.585C31.9311 358.728 31.8383 357.786 32.0192 356.877C32.2001 355.967 32.6465 355.132 33.302 354.477C33.9576 353.821 34.7928 353.375 35.7021 353.194C36.6114 353.013 37.5539 353.106 38.4104 353.46C39.267 353.815 39.9991 354.416 40.5141 355.187C41.0292 355.958 41.3041 356.864 41.3041 357.791C41.3021 359.034 40.8076 360.225 39.929 361.104C39.0503 361.982 37.8592 362.477 36.6166 362.479ZM123.2 449.062C122.273 449.062 121.367 448.788 120.596 448.272C119.825 447.757 119.224 447.025 118.87 446.169C118.515 445.312 118.422 444.37 118.603 443.46C118.784 442.551 119.23 441.716 119.886 441.06C120.541 440.405 121.377 439.958 122.286 439.777C123.195 439.597 124.138 439.689 124.994 440.044C125.851 440.399 126.583 441 127.098 441.771C127.613 442.542 127.888 443.448 127.888 444.375C127.886 445.617 127.391 446.809 126.513 447.687C125.634 448.566 124.443 449.06 123.2 449.062ZM218.334 449.062C217.407 449.062 216.501 448.788 215.73 448.272C214.959 447.757 214.358 447.025 214.003 446.169C213.649 445.312 213.556 444.37 213.737 443.46C213.918 442.551 214.364 441.716 215.02 441.06C215.675 440.405 216.51 439.958 217.42 439.777C218.329 439.597 219.271 439.689 220.128 440.044C220.984 440.399 221.717 441 222.232 441.771C222.747 442.542 223.022 443.448 223.022 444.375C223.02 445.617 222.525 446.809 221.646 447.687C220.768 448.566 219.577 449.06 218.334 449.062ZM263.649 449.062C262.722 449.062 261.816 448.788 261.045 448.272C260.274 447.757 259.673 447.025 259.318 446.169C258.964 445.312 258.871 444.37 259.052 443.46C259.233 442.551 259.679 441.716 260.335 441.06C260.99 440.405 261.825 439.958 262.735 439.777C263.644 439.597 264.586 439.689 265.443 440.044C266.299 440.399 267.032 441 267.547 441.771C268.062 442.542 268.337 443.448 268.337 444.375C268.336 445.618 267.841 446.81 266.963 447.688C266.084 448.567 264.892 449.061 263.649 449.062ZM358.783 449.062C357.856 449.062 356.949 448.788 356.179 448.272C355.408 447.757 354.807 447.025 354.452 446.169C354.097 445.312 354.005 444.37 354.185 443.46C354.366 442.551 354.813 441.716 355.468 441.06C356.124 440.405 356.959 439.958 357.868 439.777C358.778 439.597 359.72 439.689 360.577 440.044C361.433 440.399 362.165 441 362.68 441.771C363.195 442.542 363.47 443.448 363.47 444.375C363.469 445.618 362.975 446.81 362.096 447.688C361.217 448.567 360.026 449.061 358.783 449.062ZM445.367 353.104C446.294 353.104 447.2 353.379 447.971 353.894C448.742 354.409 449.342 355.141 449.697 355.997C450.052 356.854 450.145 357.796 449.964 358.706C449.783 359.615 449.337 360.45 448.681 361.106C448.026 361.761 447.19 362.208 446.281 362.389C445.372 362.569 444.429 362.477 443.573 362.122C442.716 361.767 441.984 361.166 441.469 360.395C440.954 359.625 440.679 358.718 440.679 357.791C440.68 356.548 441.174 355.357 442.053 354.478C442.932 353.599 444.124 353.105 445.367 353.104ZM445.367 257.97C446.294 257.97 447.2 258.245 447.971 258.76C448.742 259.275 449.342 260.007 449.697 260.864C450.052 261.72 450.145 262.663 449.964 263.572C449.783 264.481 449.337 265.316 448.681 265.972C448.026 266.628 447.19 267.074 446.281 267.255C445.372 267.436 444.429 267.343 443.573 266.988C442.716 266.633 441.984 266.033 441.469 265.262C440.954 264.491 440.679 263.585 440.679 262.657C440.68 261.415 441.174 260.223 442.053 259.344C442.932 258.465 444.124 257.971 445.367 257.97ZM342.242 341.25H139.742V138.75H342.242V341.25Z" fill="#162454"/>
</g>
<path fill-rule="evenodd" clip-rule="evenodd" d="M240.621 166.515C240.621 166.067 240.071 165.843 239.749 166.16L165.141 239.644C164.942 239.84 164.942 240.159 165.141 240.355L239.749 313.839C240.071 314.156 240.621 313.932 240.621 313.483V286.45C240.621 286.316 240.567 286.188 240.472 286.094L204.759 250.919C204.437 250.602 204.665 250.06 205.12 250.06H240.004C240.286 250.06 240.515 249.835 240.515 249.557V230.441C240.515 230.164 240.286 229.938 240.004 229.938H205.12C204.665 229.938 204.437 229.396 204.759 229.08L240.472 193.905C240.567 193.81 240.621 193.682 240.621 193.549V166.515Z" fill="#0EE9C4"/>
<path fill-rule="evenodd" clip-rule="evenodd" d="M317.413 229.939C317.869 229.939 318.097 229.395 317.773 229.079L253.274 166.147C252.952 165.832 252.404 166.057 252.404 166.504V313.496C252.404 313.943 252.952 314.168 253.274 313.853L317.773 250.921C318.097 250.605 317.87 250.061 317.413 250.061H289.95C289.815 250.061 289.686 250.113 289.591 250.207L273.72 265.691C273.398 266.006 272.85 265.781 272.85 265.334V214.666C272.85 214.219 273.398 213.994 273.72 214.309L289.59 229.793C289.686 229.887 289.815 229.939 289.95 229.939H317.413Z" fill="#0EE9C4"/>
</svg>
