<svg width="41" height="40" viewBox="0 0 41 40" fill="none" xmlns="http://www.w3.org/2000/svg">
<circle cx="20.9917" cy="20" r="20" fill="white"/>
<path d="M28.6298 26.1147L29.9917 27.4072V27.4501H23.0838V27.4072L24.4703 26.1147C24.6182 25.9951 24.689 25.8051 24.6552 25.6186V17.3552C24.6552 17.0061 24.6552 16.5344 24.7168 16.1301L20.0581 27.6155H20.0027L15.1776 17.049C15.0728 16.7856 15.042 16.7672 14.9742 16.5896V23.5175C14.9165 23.9812 14.9957 24.4516 15.2022 24.8713L17.1434 27.4072V27.4501H11.9917V27.4072L13.9328 24.8651C14.1378 24.4471 14.217 23.9792 14.1608 23.5175V15.8606C14.1924 15.4836 14.0777 15.1089 13.8404 14.8132L12.4662 13.0429V13H17.396L21.5247 21.9494L25.1605 13H29.9855V13.0429L28.6298 14.5436C28.4674 14.6617 28.3862 14.861 28.4203 15.0582V25.6186C28.3844 25.8107 28.4667 26.0057 28.6298 26.1147Z" fill="#162454"/>
</svg>
