<svg width="44" height="80" viewBox="0 0 44 80" fill="none" xmlns="http://www.w3.org/2000/svg">
<path d="M30.6699 31.2792C30.7613 30.7942 30.8067 30.3017 30.8053 29.8082V25.8551C30.8004 23.66 29.9267 21.5562 28.3752 20.0034C26.8237 18.4506 24.7206 17.5751 22.5256 17.5684H21.1246C18.9287 17.5745 16.8245 18.4496 15.2718 20.0023C13.7191 21.555 12.844 23.6592 12.8379 25.8551V29.8082C12.8376 30.3016 12.883 30.7941 12.9733 31.2792C11.8167 31.832 10.8396 32.7001 10.1543 33.7835C9.46905 34.867 9.10348 36.1218 9.09961 37.4037V44.0327C9.10454 45.8314 9.82125 47.555 11.0931 48.8268C12.365 50.0987 14.0886 50.8154 15.8873 50.8204H27.7582C29.5565 50.8148 31.2795 50.0978 32.5509 48.826C33.8222 47.5542 34.5386 45.831 34.5435 44.0327V37.4037C34.5399 36.1217 34.1745 34.8668 33.4892 33.7833C32.8039 32.6998 31.8266 31.8318 30.6699 31.2792ZM24.7741 45.485H18.7966L19.7516 40.215C19.3065 39.7983 18.9978 39.2567 18.8659 38.6613C18.7341 38.066 18.7854 37.4447 19.013 36.879C19.2406 36.3133 19.6339 35.8296 20.1413 35.4914C20.6488 35.1533 21.2466 34.9764 21.8563 34.9841C22.466 34.9918 23.0592 35.1837 23.5579 35.5345C24.0566 35.8853 24.4377 36.3788 24.6509 36.95C24.8642 37.5213 24.8998 38.1437 24.753 38.7355C24.6063 39.3274 24.284 39.861 23.8285 40.2664L24.7741 45.485ZM27.7068 30.6114H15.9363V26.3291C15.967 24.7885 16.6006 23.3214 17.7009 22.2428C18.8013 21.1641 20.2807 20.5599 21.8216 20.5599C23.3624 20.5599 24.8419 21.1641 25.9422 22.2428C27.0426 23.3214 27.6761 24.7885 27.7068 26.3291V30.6114Z" fill="#0EE9C4"/>
<path fill-rule="evenodd" clip-rule="evenodd" d="M3.73592 1.86796C2.70427 1.86796 1.86796 2.70427 1.86796 3.73592V76.2641C1.86796 77.2957 2.70427 78.132 3.73592 78.132H39.8973C40.9289 78.132 41.7652 77.2957 41.7652 76.2641V3.73592C41.7652 2.70427 40.9289 1.86796 39.8973 1.86796H3.73592ZM0 3.73592C0 1.67263 1.67263 0 3.73592 0H39.8973C41.9606 0 43.6332 1.67263 43.6332 3.73592V76.2641C43.6332 78.3274 41.9606 80 39.8973 80H3.73592C1.67263 80 0 78.3274 0 76.2641V3.73592Z" fill="#0EE9C4"/>
<path fill-rule="evenodd" clip-rule="evenodd" d="M26.4739 6.76444H9.39844V4.89648H26.4739V6.76444Z" fill="#0EE9C4"/>
<path d="M30.4132 7.21059C31.1753 7.21059 31.7931 6.59277 31.7931 5.83064C31.7931 5.06851 31.1753 4.45068 30.4132 4.45068C29.651 4.45068 29.0332 5.06851 29.0332 5.83064C29.0332 6.59277 29.651 7.21059 30.4132 7.21059Z" fill="#0EE9C4"/>
<path fill-rule="evenodd" clip-rule="evenodd" d="M30.4135 5.38456C30.1672 5.38456 29.9676 5.58423 29.9676 5.83054C29.9676 6.07684 30.1672 6.27651 30.4135 6.27651C30.6598 6.27651 30.8595 6.07684 30.8595 5.83054C30.8595 5.58423 30.6598 5.38456 30.4135 5.38456ZM28.0996 5.83054C28.0996 4.55258 29.1356 3.5166 30.4135 3.5166C31.6915 3.5166 32.7275 4.55258 32.7275 5.83054C32.7275 7.10849 31.6915 8.14447 30.4135 8.14447C29.1356 8.14447 28.0996 7.10849 28.0996 5.83054Z" fill="#0EE9C4"/>
<path d="M21.8172 75.552C23.8122 75.552 25.4294 73.9347 25.4294 71.9398C25.4294 69.9449 23.8122 68.3276 21.8172 68.3276C19.8223 68.3276 18.2051 69.9449 18.2051 71.9398C18.2051 73.9347 19.8223 75.552 21.8172 75.552Z" fill="#0EE9C4"/>
<path fill-rule="evenodd" clip-rule="evenodd" d="M7.49805 9.9679C6.34905 9.9679 5.41761 10.8993 5.41761 12.0483V63.2467C5.41761 64.3957 6.34905 65.3272 7.49805 65.3272H36.1385C37.2875 65.3272 38.219 64.3957 38.219 63.2467V12.0483C38.219 10.8993 37.2875 9.9679 36.1385 9.9679H7.49805ZM3.97461 12.0483C3.97461 10.1024 5.55211 8.5249 7.49805 8.5249H36.1385C38.0845 8.5249 39.662 10.1024 39.662 12.0483V63.2467C39.662 65.1927 38.0845 66.7702 36.1385 66.7702H7.49805C5.55211 66.7702 3.97461 65.1927 3.97461 63.2467V12.0483Z" fill="#0EE9C4"/>
</svg>
