<svg width="166" height="32" viewBox="0 0 166 32" fill="none" xmlns="http://www.w3.org/2000/svg">
<path d="M83.8892 28.4283C83.8892 28.9915 83.8892 29.1195 84.2736 29.4651L86.4264 31.5642V31.6538H76.8796V27.6219C75.9188 30.2793 73.3776 32.0365 70.5492 31.9994C65.6412 31.9994 62.0788 28.1595 62.0788 21.094C62.0788 14.4765 65.9231 10.0606 71.3181 10.0606C73.7095 9.91026 75.9348 11.286 76.8668 13.491V4.59512C76.9377 4.18317 76.7689 3.76663 76.4311 3.51994L74.3808 1.54877V1.45917L83.8892 0.345594V28.4283ZM76.8796 27.1483V13.8749C76.1877 13.0166 75.1379 12.5253 74.0348 12.5438C71.7153 12.5438 69.4728 14.6429 69.4728 20.8764C69.4728 26.7131 71.4078 28.7739 73.8169 28.7739C75.0384 28.7489 76.1753 28.1455 76.8796 27.1483ZM90.2196 31.6538V13.7342C90.2806 13.334 90.1362 12.93 89.8351 12.659L87.7207 10.483V10.3934H97.2676V28.5691C97.2676 29.1323 97.2676 29.2603 97.652 29.6059L99.7536 31.577V31.6666L90.2196 31.6538ZM89.8736 3.83993C89.8736 1.7192 91.5947 0 93.7179 0C95.8411 0 97.5623 1.7192 97.5623 3.83993C97.5623 5.96067 95.8411 7.67986 93.7179 7.67986C91.5947 7.67986 89.8736 5.96067 89.8736 3.83993ZM123.025 28.3899C123.025 28.9531 123.025 29.1195 123.409 29.4651L125.562 31.5642V31.6538H115.964V27.0587C115.09 29.9642 112.427 31.9654 109.39 31.9994C105.136 31.9994 102.855 28.9019 102.855 23.0396C102.855 20.2108 102.855 17.1133 102.944 13.6318C103.015 13.242 102.867 12.8449 102.56 12.595L100.446 10.483V10.3934H109.916C109.916 10.5214 109.916 21.5164 109.916 22.0796C109.916 25.9195 110.479 28.4795 112.889 28.4795C114.182 28.3987 115.348 27.672 115.99 26.5467V13.747C116.051 13.3468 115.906 12.9428 115.605 12.6718L113.478 10.483V10.3934H123.025V28.3899ZM155.523 31.6538C155.523 30.9626 155.651 22.1564 155.651 20.134C155.651 16.2941 155.048 13.6446 152.345 13.6446C150.984 13.6865 149.724 14.3703 148.949 15.4877C149.22 16.6844 149.349 17.9088 149.333 19.1357C149.333 21.798 149.243 25.1899 149.205 28.5819C149.135 28.9716 149.282 29.3687 149.589 29.6187L151.742 31.5898V31.6794H142.106C142.106 31.0394 142.234 22.182 142.234 20.1596C142.234 16.2557 141.632 13.6702 138.966 13.6702C137.652 13.7172 136.454 14.4318 135.788 15.5645V28.6203C135.788 29.1835 135.788 29.3115 136.173 29.6571L138.274 31.6282V31.7178H128.74V13.7982C128.801 13.398 128.657 12.994 128.356 12.723L126.241 10.483V10.3934H135.788V14.9501C136.673 11.9416 139.494 9.9206 142.631 10.0478C145.809 10.0478 147.962 11.8142 148.872 15.1677C149.882 12.0748 152.791 9.99948 156.048 10.0478C160.302 10.0478 162.712 13.1838 162.712 19.1101C162.712 21.9388 162.622 25.1643 162.583 28.5563C162.509 28.9577 162.68 29.3652 163.019 29.5931L165.121 31.5642V31.6538H155.523ZM35.591 28.8635L38.4231 31.5642V31.6538H24.0579V31.5642L26.9412 28.8635C27.2487 28.6135 27.3959 28.2164 27.3256 27.8267V10.5598C27.3256 9.83022 27.3256 8.84464 27.4538 7.99986L17.766 31.9994H17.6506L7.61683 9.91982C7.39898 9.36943 7.33491 9.33103 7.19395 8.95984V23.4364C7.07383 24.4053 7.23857 25.3881 7.66809 26.2651L11.7047 31.5642V31.6538H0.991699V31.5642L5.02829 26.2523C5.45464 25.3789 5.61929 24.4011 5.50243 23.4364V7.43667C5.56806 6.64888 5.32967 5.86583 4.83607 5.24791L1.97842 1.54877V1.45917H12.2301L20.8158 20.1596L28.3764 1.45917H38.4102V1.54877L35.591 4.68472C35.2532 4.93141 35.0844 5.34794 35.1553 5.7599V27.8267C35.0806 28.2282 35.2518 28.6356 35.591 28.8635ZM46.8294 20.2108V20.3004C46.8294 25.7787 49.6614 27.9803 52.9804 27.9803C55.7518 28.0748 58.3167 26.5226 59.5158 24.0252H59.6055C58.4522 29.4395 55.0948 31.9994 50.0715 31.9994C44.6509 31.9994 39.5379 28.7355 39.5379 21.1708C39.5379 13.2222 44.6638 10.0478 50.3278 10.0478C54.8898 10.0478 59.7465 12.1982 59.7465 19.1101C59.7465 19.2381 59.7465 19.6988 59.7465 20.2108H46.8294ZM46.8294 19.1101H53.147C53.147 18.5469 53.147 18.1629 53.147 17.9965C53.147 12.3646 51.9809 10.867 50.2253 10.867C48.0981 10.867 46.8038 13.107 46.8038 19.1101H46.8294Z" fill="white"/>
</svg>
