<svg width="82" height="80" viewBox="0 0 82 80" fill="none" xmlns="http://www.w3.org/2000/svg">
<path d="M40.73 1.9055C50.9959 1.86061 60.8648 5.8681 68.193 13.0574C75.5173 20.2412 79.5498 29.7853 79.5498 39.9369C79.5498 50.0884 75.5173 59.635 68.193 66.8187C60.8402 73.9696 50.988 77.9704 40.7312 77.9704C30.4745 77.9704 20.6223 73.9696 13.2694 66.8187C5.94516 59.635 1.91026 50.0908 1.91026 39.9369C1.91026 29.7829 5.94516 20.2412 13.2694 13.0574C20.5968 5.86824 30.4649 1.86072 40.73 1.9055ZM40.73 0C18.2404 0 0 17.8807 0 39.9369C0 61.993 18.2356 79.8761 40.73 79.8761C63.2244 79.8761 81.4601 61.9954 81.4601 39.9369C81.4601 17.8783 63.2149 0 40.73 0Z" fill="#0EE9C4"/>
<path d="M40.5425 1.9055C55.4792 1.9055 67.6292 18.9669 67.6292 39.9369C67.6292 60.9069 55.4816 77.9706 40.5425 77.9706C25.6034 77.9706 13.4582 60.9093 13.4582 39.9369C13.4582 18.9645 25.6082 1.9055 40.5425 1.9055ZM40.5425 0C24.5316 0 11.5527 17.8879 11.5527 39.9369C11.5527 61.9859 24.5316 79.8761 40.5425 79.8761C56.5535 79.8761 69.5347 61.9954 69.5347 39.9369C69.5347 17.8783 56.5463 0 40.5425 0Z" fill="#0EE9C4"/>
<path d="M40.5316 2.02952C41.4843 2.02952 43.8376 4.17321 45.9146 12.293C47.8082 19.6768 48.8491 29.5473 48.8491 40.0609C48.8491 50.5745 47.8082 60.4354 45.9146 67.8288C43.8376 75.9486 41.4843 78.0946 40.5316 78.0946C39.5788 78.0946 37.2279 75.951 35.1486 67.8288C33.2574 60.445 32.2141 50.5745 32.2141 40.0609C32.2141 29.5473 33.2574 19.6863 35.1486 12.293C37.2279 4.17321 39.5788 2.02952 40.5316 2.02952ZM40.5316 0.124023C34.8866 0.124023 30.3086 18.0047 30.3086 40.0609C30.3086 62.117 34.8866 80.0001 40.5316 80.0001C46.1766 80.0001 50.7546 62.1194 50.7546 40.0609C50.7546 18.0024 46.179 0.124023 40.5316 0.124023Z" fill="#0EE9C4"/>
<path fill-rule="evenodd" clip-rule="evenodd" d="M81.4544 40.9519H0.00390625V39.0464H81.4544V40.9519Z" fill="#0EE9C4"/>
<path fill-rule="evenodd" clip-rule="evenodd" d="M74.1765 19.7834H7.16016V17.8779H74.1765V19.7834Z" fill="#0EE9C4"/>
<path fill-rule="evenodd" clip-rule="evenodd" d="M76.0599 58.9206H5.27539V57.0151H76.0599V58.9206Z" fill="#0EE9C4"/>
<path d="M55.6772 7.01221C52.1305 7.01221 49.2461 9.83235 49.2461 13.3123C49.2443 14.6696 49.6896 15.9897 50.5133 17.0685L50.5323 17.0947L55.5604 23.6686L60.5624 17.3948L60.903 16.9708C61.6783 15.9087 62.0955 14.6273 62.0939 13.3123C62.1011 9.83235 59.2238 7.01221 55.6772 7.01221ZM55.6772 14.9129C55.2771 14.9068 54.8877 14.7825 54.558 14.5558C54.2283 14.329 53.9731 14.0098 53.8243 13.6384C53.6755 13.2669 53.6398 12.8598 53.7218 12.4681C53.8037 12.0764 53.9997 11.7178 54.2849 11.4371C54.5701 11.1565 54.932 10.9665 55.3249 10.8909C55.7179 10.8154 56.1244 10.8577 56.4934 11.0125C56.8623 11.1673 57.1773 11.4278 57.3987 11.7611C57.62 12.0944 57.7379 12.4858 57.7375 12.8859C57.7318 13.4275 57.5119 13.9449 57.1258 14.3247C56.7396 14.7046 56.2188 14.9161 55.6772 14.9129Z" fill="#0EE9C4"/>
<path d="M53.811 48.8647C50.0357 48.8647 46.9727 51.8683 46.9727 55.5721C46.9712 57.0173 47.4458 58.4228 48.3232 59.5713L48.3422 59.5975L53.6872 66.5978L59.0059 59.9285L59.3679 59.476C60.1966 58.3467 60.643 56.9823 60.6422 55.5816C60.6518 51.8683 57.5887 48.8647 53.811 48.8647ZM53.811 57.2751C53.3856 57.2667 52.9721 57.1328 52.6224 56.8902C52.2728 56.6477 52.0026 56.3072 51.8457 55.9117C51.6888 55.5161 51.6523 55.083 51.7406 54.6668C51.8289 54.2505 52.0382 53.8696 52.3422 53.5718C52.6462 53.2741 53.0314 53.0727 53.4494 52.993C53.8674 52.9134 54.2997 52.9589 54.6919 53.124C55.0841 53.2891 55.4188 53.5663 55.6541 53.9209C55.8893 54.2755 56.0146 54.6916 56.0142 55.1172C56.0114 55.4036 55.9522 55.6866 55.84 55.9501C55.7277 56.2136 55.5646 56.4524 55.3599 56.6528C55.1553 56.8533 54.9132 57.0114 54.6474 57.1182C54.3816 57.2249 54.0974 57.2783 53.811 57.2751Z" fill="#0EE9C4"/>
<path d="M23.1643 26.2056C19.3962 26.2056 16.3379 29.202 16.3379 32.8986C16.3366 34.3413 16.8104 35.7442 17.686 36.8906L17.7051 36.9169L23.05 43.9053L28.3592 37.236L28.7213 36.7835C29.5478 35.6552 29.9926 34.2925 29.9908 32.8939C29.9908 29.202 26.9348 26.2056 23.1643 26.2056ZM23.1643 34.6017C22.7387 34.5937 22.325 34.46 21.9752 34.2174C21.6254 33.9749 21.3552 33.6343 21.1984 33.2385C21.0417 32.8427 21.0056 32.4094 21.0945 31.9931C21.1835 31.5769 21.3936 31.1962 21.6983 30.899C22.0031 30.6018 22.389 30.4014 22.8073 30.323C23.2257 30.2446 23.658 30.2917 24.0497 30.4583C24.4414 30.625 24.775 30.9037 25.0087 31.2595C25.2423 31.6154 25.3656 32.0323 25.3628 32.458C25.3534 33.0331 25.117 33.5812 24.7052 33.9827C24.2934 34.3843 23.7395 34.6068 23.1643 34.6017Z" fill="#0EE9C4"/>
<path fill-rule="evenodd" clip-rule="evenodd" d="M31.7364 16.5885C26.8839 19.2082 24.208 22.6546 24.208 26.2053H22.1191C22.1191 21.5219 25.6135 17.5202 30.744 14.7504C35.916 11.9581 42.9913 10.2646 50.7552 10.2646V12.3536C43.268 12.3536 36.5475 13.9911 31.7364 16.5885Z" fill="#0EE9C4"/>
<path fill-rule="evenodd" clip-rule="evenodd" d="M50.8743 52.6439C48.5191 40.3521 39.0825 32.2875 30.1799 33.9247L29.8008 31.8632C40.3009 29.9323 50.4623 39.3554 52.9329 52.2495L50.8743 52.6439Z" fill="#0EE9C4"/>
</svg>
