<svg width="281" height="281" viewBox="0 0 281 281" fill="none" xmlns="http://www.w3.org/2000/svg">
<g clip-path="url(#clip0)">
<path d="M155.292 251.374C157.938 251.374 160.071 249.231 160.071 246.595C160.071 243.953 157.938 241.816 155.292 241.816C74.934 241.816 9.558 196.252 9.558 140.247C9.558 84.2389 74.934 38.6769 155.292 38.6769C157.938 38.6769 160.071 36.5349 160.071 33.8979C160.071 31.2589 157.938 29.1189 155.292 29.1189C69.663 29.1179 0 78.9669 0 140.246C0 201.52 69.663 251.374 155.292 251.374Z" fill="#0EE9C4"/>
<path d="M155.292 50.3879C86.2656 50.3879 30.1016 90.6999 30.1016 140.25C30.1016 142.887 32.2366 145.029 34.8806 145.029C37.5246 145.029 39.6596 142.887 39.6596 140.25C39.6596 95.9709 91.5326 59.9459 155.292 59.9459C219.059 59.9459 270.933 95.9709 270.933 140.25C270.933 142.887 273.066 145.029 275.712 145.029C278.354 145.029 280.491 142.887 280.491 140.25C280.492 90.6999 224.328 50.3879 155.292 50.3879Z" fill="#0EE9C4"/>
<path d="M251.63 145.024C254.276 145.024 256.409 142.882 256.409 140.246C256.409 100.076 211.054 67.4019 155.302 67.4019C99.5495 67.4019 54.1895 100.076 54.1895 140.246C54.1895 180.415 99.5485 213.085 155.302 213.085C157.943 213.085 160.08 210.947 160.08 208.306C160.08 205.674 157.942 203.527 155.302 203.527C104.818 203.527 63.7475 175.142 63.7475 140.247C63.7475 105.349 104.817 76.9609 155.302 76.9609C205.79 76.9609 246.851 105.349 246.851 140.247C246.851 142.883 248.989 145.024 251.63 145.024Z" fill="#0EE9C4"/>
<path d="M222.811 140.246C222.811 142.883 224.944 145.024 227.59 145.024C230.232 145.024 232.369 142.882 232.369 140.246C232.369 109.448 197.795 84.3918 155.292 84.3918C112.801 84.3918 78.2266 109.447 78.2266 140.246C78.2266 171.044 112.801 196.106 155.292 196.106C157.938 196.106 160.071 193.959 160.071 191.327C160.071 188.685 157.938 186.548 155.292 186.548C118.072 186.548 87.7846 165.775 87.7846 140.246C87.7846 114.719 118.072 93.9508 155.292 93.9508C192.527 93.9558 222.811 114.719 222.811 140.246Z" fill="#0EE9C4"/>
<path d="M155.292 112.334C178.18 112.334 196.792 124.856 196.792 140.246C196.792 142.883 198.929 145.024 201.57 145.024C204.211 145.024 206.349 142.882 206.349 140.246C206.349 119.585 183.448 102.776 155.291 102.776C127.151 102.776 104.254 119.585 104.254 140.246C104.254 160.907 127.151 177.723 155.291 177.723C157.937 177.723 160.07 175.58 160.07 172.944C160.07 170.308 157.937 168.165 155.291 168.165C132.422 168.165 113.812 155.639 113.812 140.247C113.818 124.856 132.424 112.334 155.292 112.334Z" fill="#0EE9C4"/>
</g>
<defs>
<clipPath id="clip0">
<rect width="280.492" height="280.492" fill="white"/>
</clipPath>
</defs>
</svg>
