<svg width="22" height="20" viewBox="0 0 22 20" fill="none" xmlns="http://www.w3.org/2000/svg">
<path fill-rule="evenodd" clip-rule="evenodd" d="M1.69627 0.660716C2.16581 0.220382 2.77872 0 3.53514 0C4.29162 0 4.89796 0.220191 5.35351 0.660716C5.80911 1.10115 6.0417 1.65723 6.0508 2.32935C6.05985 2.99231 5.82975 3.54624 5.36041 3.99111C4.89107 4.43621 4.27347 4.6586 3.50775 4.6586H3.48041C2.73303 4.6586 2.13138 4.43602 1.67578 3.99111C1.22003 3.54624 0.992188 2.99211 0.992188 2.32935C0.992188 1.65718 1.22679 1.10115 1.69627 0.660716ZM20.5702 7.73273C19.6225 6.70196 18.369 6.18648 16.8105 6.18648C16.2363 6.18648 15.7143 6.25685 15.2448 6.3977C14.7755 6.53845 14.3791 6.73593 14.0554 6.99024C13.7319 7.24454 13.4743 7.48062 13.283 7.69847C13.1012 7.9054 12.9233 8.14644 12.7498 8.41911V6.49957H8.25148L8.26527 7.15351C8.27451 7.58955 8.27906 8.9335 8.27906 11.1856C8.27906 13.4378 8.26996 16.3755 8.25167 19.999H12.7498V12.4659C12.7498 12.0029 12.7996 11.6351 12.9001 11.3625C13.0916 10.8991 13.3807 10.5111 13.7683 10.198C14.1559 9.8844 14.6365 9.72776 15.2109 9.72776C15.9945 9.72776 16.5713 9.9979 16.9405 10.5382C17.3095 11.0785 17.4941 11.8255 17.4941 12.7791V19.9986H21.9922V12.2618C21.9918 10.2728 21.5182 8.76317 20.5702 7.73273ZM5.76244 6.50075H1.2507V20H5.76244V6.50075Z" fill="#0EE9C4"/>
</svg>
