<svg width="63" height="60" viewBox="0 0 63 60" fill="none" xmlns="http://www.w3.org/2000/svg">
<path fill-rule="evenodd" clip-rule="evenodd" d="M31.6528 0.20923C31.6528 0.0275405 31.4298 -0.06345 31.2994 0.0650236L1.05283 29.8559C0.971972 29.9355 0.971973 30.0646 1.05283 30.1443L31.2994 59.9351C31.4298 60.0636 31.6528 59.9726 31.6528 59.7909V48.8313C31.6528 48.7772 31.631 48.7253 31.5922 48.6871L17.1139 34.4269C16.9835 34.2985 17.0758 34.0788 17.2603 34.0788H31.4027C31.517 34.0788 31.6097 33.9875 31.6097 33.8749V26.1252C31.6097 26.0126 31.517 25.9213 31.4027 25.9213H17.2604C17.0759 25.9213 16.9836 25.7016 17.114 25.5731L31.5922 11.3131C31.631 11.2748 31.6528 11.223 31.6528 11.1689V0.20923Z" fill="#0EE9C4"/>
<path fill-rule="evenodd" clip-rule="evenodd" d="M62.7847 25.9212C62.9696 25.9212 63.0618 25.7006 62.9304 25.5724L36.7825 0.0594635C36.6517 -0.0680794 36.4297 0.0231201 36.4297 0.204347V59.7957C36.4297 59.9769 36.6517 60.0681 36.7825 59.9405L62.9305 34.4275C63.0619 34.2993 62.9697 34.0787 62.7847 34.0787H51.6509C51.5964 34.0787 51.544 34.0999 51.5052 34.1378L45.0713 40.4154C44.9406 40.543 44.7185 40.4518 44.7185 40.2705V19.7295C44.7185 19.5482 44.9406 19.457 45.0713 19.5846L51.5052 25.8622C51.5439 25.9 51.5963 25.9212 51.6509 25.9212H62.7847Z" fill="#0EE9C4"/>
</svg>
