<svg width="196" height="320" viewBox="0 0 196 320" fill="none" xmlns="http://www.w3.org/2000/svg">
<path d="M116.21 89.4568C116.21 88.7274 116.505 88.0314 117.014 87.511L160.366 44.1633C160.908 43.6223 161.61 43.3592 162.312 43.3592C163.014 43.3592 163.716 43.628 164.247 44.1633C165.32 45.2304 165.32 46.9729 164.247 48.0457L121.699 90.594L121.693 238.113C121.693 238.842 121.404 239.538 120.895 240.056L41.7449 319.198C40.6755 320.268 38.933 320.268 37.8636 319.198C36.7942 318.129 36.7942 316.386 37.8636 315.317L116.204 236.977L116.21 89.4568Z" fill="#0EE9C4"/>
<path d="M52.195 19.9532C52.8979 19.9532 53.6021 20.2208 54.1339 20.7515L108.511 75.1217C109.026 75.6351 109.309 76.3335 109.309 77.0675L109.298 225.728C109.298 227.242 108.071 228.472 106.554 228.472C105.036 228.472 103.808 227.242 103.808 225.728L103.819 78.2035L50.2503 24.6316C49.1809 23.5645 49.1809 21.8232 50.2503 20.7504C50.7959 20.222 51.4931 19.9532 52.195 19.9532Z" fill="#0EE9C4"/>
<path d="M10.2125 3.05176e-05C10.9143 3.05176e-05 11.6207 0.26767 12.156 0.804092L94.0536 82.7074C94.5704 83.2277 94.8599 83.925 94.8599 84.6532L94.8542 210.313C96.5783 212.444 97.5615 215.033 97.5615 217.81C97.5615 221.012 96.3152 224.027 94.0467 226.294C89.5198 230.817 81.6263 230.811 77.0845 226.294C72.413 221.617 72.413 214.007 77.0845 209.336C79.352 207.068 82.3649 205.818 85.565 205.818C86.8837 205.818 88.146 206.082 89.3579 206.48L89.3625 85.7835L8.2747 4.68538C7.20531 3.61829 7.20531 1.87694 8.2747 0.804092C8.81342 0.268829 9.5095 3.05176e-05 10.2125 3.05176e-05ZM80.9727 213.217C78.4423 215.747 78.4423 219.875 80.9727 222.413C82.2029 223.641 83.8329 224.316 85.5719 224.316C87.3064 224.316 88.9444 223.641 90.1665 222.413C91.3967 221.183 92.0721 219.547 92.0721 217.81C92.0721 216.076 91.3967 214.447 90.1665 213.216C87.7142 210.749 83.4308 210.754 80.9727 213.217Z" fill="#0EE9C4"/>
<path d="M174.857 55.1742C177.126 52.9113 180.133 51.6616 183.333 51.6616C186.533 51.6616 189.54 52.9056 191.809 55.1742C196.477 59.848 196.483 67.4544 191.809 72.1363C187.944 75.9957 181.643 76.5322 177.06 73.8087L135.503 115.371L135.492 262.894C135.492 263.639 135.18 264.359 134.645 264.869L77.9971 319.23C76.8979 320.284 75.1634 320.246 74.1159 319.156C73.0671 318.056 73.1005 316.317 74.1986 315.274L130.007 261.717L130.018 114.23C130.018 113.5 130.308 112.804 130.817 112.29L173.162 69.9446C170.311 65.3213 170.852 59.168 174.857 55.1742ZM178.737 68.255C179.959 69.4818 181.594 70.1514 183.332 70.1514C185.063 70.1514 186.698 69.4818 187.925 68.255C190.461 65.7188 190.461 61.5905 187.925 59.0555C185.471 56.5939 181.187 56.5996 178.731 59.0555C176.207 61.5905 176.207 65.7188 178.737 68.255Z" fill="#0EE9C4"/>
<path d="M12.6784 20.2701C15.8797 20.2701 18.8914 21.5187 21.1542 23.7873C25.1561 27.7857 25.7052 33.9356 22.8508 38.5555L75.6255 91.3279C76.1378 91.8425 76.4273 92.534 76.4273 93.2634L76.6524 169.956C78.7728 172.192 79.9628 175.094 79.9628 178.185C79.9686 181.391 78.7165 184.404 76.4479 186.672C71.9257 191.196 64.0218 191.196 59.4916 186.672C54.82 181.983 54.82 174.382 59.4916 169.715C61.759 167.448 64.7719 166.196 67.9721 166.196C69.0713 166.196 70.1246 166.394 71.1515 166.674L70.9367 94.4177L18.942 42.4172C14.3554 45.1407 8.05965 44.6043 4.19214 40.7448C-0.479413 36.0652 -0.479413 28.4531 4.19214 23.7827C6.46188 21.5187 9.47249 20.2701 12.6784 20.2701ZM63.3729 173.595C60.8424 176.126 60.8424 180.248 63.3729 182.789C64.6031 184.019 66.233 184.695 67.9721 184.695C69.7065 184.695 71.3445 184.019 72.5667 182.789C73.7969 181.561 74.4723 179.929 74.4723 178.19C74.4723 176.45 73.7969 174.823 72.5667 173.595C70.1143 171.123 65.839 171.129 63.3729 173.595ZM8.07802 36.867C9.30019 38.0891 10.9382 38.7645 12.6726 38.7645C14.4071 38.7645 16.0416 38.0891 17.2672 36.867C19.8034 34.3307 19.8034 30.2036 17.2672 27.6674C14.8068 25.2059 10.5258 25.2116 8.07343 27.6674C5.53951 30.2036 5.54525 34.3261 8.07802 36.867Z" fill="#0EE9C4"/>
<path d="M12.6787 54.407L54.0347 97.5296V155.513L12.6787 111.147V54.407Z" fill="#0EE9C4"/>
<path d="M183.332 217.637L143.812 263.193V124.211L183.332 85.109V217.637Z" fill="#0EE9C4"/>
</svg>
